<svg xmlns="http://www.w3.org/2000/svg" xmlns:xlink="http://www.w3.org/1999/xlink" xml:space="preserve" id="svg3783" width="316" height="316" style="fill-rule:evenodd" version="1.1" viewBox="0 0 21000 20999.875"><defs id="defs3785"><linearGradient id="linearGradient4587"><stop id="stop4589" offset="0" style="stop-color:#0055d4;stop-opacity:1"/><stop id="stop4591" offset="1" style="stop-color:#0055d4;stop-opacity:0"/></linearGradient><linearGradient id="id0" x1="10575.7" x2="18872.4" y1="10841.5" y2="20282.6" gradientUnits="userSpaceOnUse"><stop id="stop3790" offset="0" style="stop-color:#36c"/><stop id="stop3792" offset=".588235" style="stop-color:white"/><stop id="stop3794" offset=".901961" style="stop-color:white"/><stop id="stop3796" offset="1" style="stop-color:white"/></linearGradient><linearGradient xlink:href="#linearGradient4587" id="linearGradient4593" x1="10739" x2="18709" y1="15562" y2="15562" gradientUnits="userSpaceOnUse"/></defs><g id="图层_x0020_1" transform="translate(0 -8700.126)"><g id="_668126480"><path id="path3801" d="M10446.998 9749.4327c71.879-32.7684 142.701-64.4799 213.523-96.1913v4072.8016c-34.882 15.856-69.765 31.711-104.648 47.567-4728.1736 1535.89-9250.2238 5436.396-8061.0451 9214.285 641.628 2040.102 4570.6744 2666.931 7868.6631 1959.767-4554.8185 1097.215-8926.7678 67.651-9907.70813-3052.754C-732.33877 18117.019 5180.7862 12165.84 10448.055 9749.4327z" class="fil0" style="fill:#04a"/><path id="polygon3803" d="m18709 15183-7970 5414v-6544l7970-3526z" style="fill:url(#linearGradient4593);fill-opacity:1" transform="translate(-964.06713 4257.4826) scale(1.0570477)"/><path id="path3805" d="M10619.296 28875.651c-71.879 32.768-142.701 64.48-213.523 96.191v-4072.805c34.883-15.855 69.765-31.711 104.648-47.567 4728.174-1535.89 9250.224-5436.396 8061.045-9214.285-641.628-2040.102-4570.674-2666.931-7868.663-1959.766 4554.819-1097.216 8926.768-67.651 9907.708 3052.754 1188.122 3777.888-4725.003 9729.067-9992.272 12145.478z" class="fil0" style="fill:#04a"/></g></g></svg>
