<svg xmlns="http://www.w3.org/2000/svg" fill="none" viewBox="0 0 46 46"><path fill="#D64000" d="M37.5935 8.37c.509.508.788 1.188.788 1.911 0 .723-.28 1.403-.787 1.912a2.7 2.7 0 0 1-3.815 0 2.686 2.686 0 0 1-.788-1.912c0-.723.28-1.403.788-1.912a2.688 2.688 0 0 1 1.91-.794c.695 0 1.382.265 1.912.794h-.007l-.001.001zM8.3985 37.623a2.71 2.71 0 0 1 0-3.823 2.691 2.691 0 0 1 1.911-.795c.723 0 1.403.28 1.911.795a2.71 2.71 0 0 1 0 3.823 2.69 2.69 0 0 1-1.91.795c-.724 0-1.404-.28-1.912-.795zm20.578-29.046h-.021a2.375 2.375 0 0 1-1.26-1.281 2.338 2.338 0 0 1 0-1.812 2.366 2.366 0 0 1 2.183-1.46c.3 0 .615.064.902.179a2.377 2.377 0 0 1 1.28 3.093 2.37 2.37 0 0 1-3.084 1.281zm-12.848 28.667c.308 0 .609.064.902.179a2.377 2.377 0 0 1 1.281 3.093 2.344 2.344 0 0 1-1.28 1.281 2.337 2.337 0 0 1-1.812 0 2.377 2.377 0 0 1-1.28-3.093 2.367 2.367 0 0 1 2.182-1.46h.007zm8.897-32.218a2.03 2.03 0 0 1-1.932 2.026h-.093a2.029 2.029 0 0 1-2.026-2.026C20.9735 3.91 21.8835 3 23.0005 3c1.116 0 2.025.916 2.025 2.033v-.007zm-4.052 35.948c0-1.117.91-2.026 2.027-2.026 1.116 0 2.025.909 2.025 2.026A2.029 2.029 0 0 1 23.0005 43a2.029 2.029 0 0 1-2.026-2.026h-.001zm-4.193-33.02a1.674 1.674 0 0 1-1.289 0 1.668 1.668 0 0 1-.916-.916 1.69 1.69 0 1 1 3.12-1.296c.173.422.173.88 0 1.296a1.646 1.646 0 0 1-.915.916zm12.433 30.092a1.73 1.73 0 0 1 .65-.129c.222 0 .437.043.645.129a1.693 1.693 0 0 1 .916 2.212 1.646 1.646 0 0 1-.916.917 1.693 1.693 0 0 1-1.296 0 1.646 1.646 0 0 1-.916-.917 1.693 1.693 0 0 1 .916-2.212h.001zM11.2615 9.343c.516.523.53 1.354.029 1.89l-.029.03c-.53.529-1.388.529-1.91 0a1.357 1.357 0 0 1 0-1.92c.264-.264.608-.393.958-.393.351 0 .695.129.96.393h-.008zm23.455 25.409c.258-.265.609-.394.952-.394.344 0 .694.13.96.394.257.25.393.594.393.96a1.348 1.348 0 1 1-2.698 0c0-.358.143-.702.393-.96zM5.7715 17.684a1.697 1.697 0 0 1-.916-2.212c.172-.422.494-.745.916-.916.215-.086.43-.13.652-.13.222 0 .436.044.644.13a1.703 1.703 0 0 1 .916 2.212 1.646 1.646 0 0 1-.916.916c-.422.172-.88.172-1.288 0h-.008zm34.457 10.639a1.694 1.694 0 0 1 .916 2.212 1.69 1.69 0 0 1-3.121 0 1.694 1.694 0 0 1 1.56-2.34c.659 0 .43.042.645.128zM3.0235 23.01c0-1.116.909-2.026 2.026-2.026 1.116 0 2.025.91 2.025 2.026a2.029 2.029 0 0 1-2.025 2.027 2.029 2.029 0 0 1-2.026-2.027zm35.902 0c0-1.116.909-2.026 2.025-2.026 1.117 0 2.026.91 2.026 2.026a2.029 2.029 0 0 1-2.026 2.027 2.029 2.029 0 0 1-2.025-2.026v-.001zm-34.7 7.776a2.365 2.365 0 0 1 1.282-3.093 2.366 2.366 0 0 1 3.092 1.282 2.338 2.338 0 0 1 0 1.81 2.367 2.367 0 0 1-4.374 0v.001zm33.161-13.761a2.32 2.32 0 0 1 0-1.804 2.367 2.367 0 0 1 2.183-1.46c.93 0 1.81.551 2.183 1.46a2.365 2.365 0 0 1-1.281 3.093 2.367 2.367 0 0 1-3.092-1.282l.007-.007zm-8.646 11.728a1.893 1.893 0 0 0 0 2.684c.744.745 1.94.745 2.684 0a1.88 1.88 0 0 0 .558-1.338c0-.509-.2-.988-.558-1.34a1.873 1.873 0 0 0-1.339-.55 1.92 1.92 0 0 0-1.345.55v-.006zm-15.818-6.903a1.5 1.5 0 0 1-1.06-1.84c.108-.386.351-.708.702-.916.229-.136.487-.2.744-.2.258 0 .258.014.387.05.386.108.708.351.909.702.2.35.25.752.15 1.145a1.504 1.504 0 0 1-1.84 1.067l.008-.007v-.001zm19.368 5.199a1.492 1.492 0 0 1-.91-.702c-.2-.35-.25-.752-.15-1.146a1.506 1.506 0 0 1 1.453-1.117c.258 0 .215.008.323.036l.071.022a1.504 1.504 0 0 1 .358 2.756c-.35.2-.752.258-1.145.15v.001zm-20.134-1.139a1.213 1.213 0 0 1 .78-1.46l.072-.021a1.21 1.21 0 0 1 1.474.852c.086.315.043.637-.122.916-.157.28-.422.48-.73.566-.315.085-.63.042-.916-.122a1.171 1.171 0 0 1-.558-.73v-.001zm19.919-4.453-.05-.029a1.205 1.205 0 0 1-.508-.701 1.205 1.205 0 1 1 1.474.852c-.307.085-.63.035-.916-.122zm-15.496 9.229-.036.036c-.35.35-.93.35-1.28 0a.905.905 0 1 1 1.546-.637.85.85 0 0 1-.23.6v.001zm14.136-15.429c.172.172.265.401.265.644a.904.904 0 1 1-1.81 0 .904.904 0 0 1 .908-.909c.244 0 .473.093.644.265h-.007zm-9.276 16.833c.158.278.2.6.122.916-.086.314-.28.572-.558.73-.28.157-.602.2-.917.122a1.208 1.208 0 0 1-.851-1.475c.086-.315.279-.573.558-.73.28-.158.601-.201.916-.122.315.086.566.286.73.565v-.007.001zm3.099-18.172c-.157-.279-.2-.601-.121-.916.086-.315.279-.573.558-.73.186-.108.394-.158.601-.158.208 0 .208.015.315.043.315.086.573.28.73.566a1.202 1.202 0 0 1-1.353 1.768 1.163 1.163 0 0 1-.73-.565v-.008zm1.811 17.477.065.035c.315.2.536.509.637.874a1.497 1.497 0 0 1-1.06 1.84 1.49 1.49 0 0 1-1.145-.15c-.35-.201-.594-.523-.701-.917a1.494 1.494 0 0 1 .15-1.146 1.492 1.492 0 0 1 1.303-.751c.257 0 .515.071.751.2v.015zm-5.561-16.632a1.504 1.504 0 0 1-1.84-1.067 1.497 1.497 0 0 1 1.446-1.89c.666 0 1.274.444 1.453 1.117a1.497 1.497 0 0 1-1.06 1.84h.001zm-4.882 3.021c1.045 0 1.89-.852 1.89-1.897a1.894 1.894 0 0 0-1.89-1.897c-1.045 0-1.89.852-1.89 1.897s.845 1.897 1.89 1.897z"/></svg>
