<svg xmlns="http://www.w3.org/2000/svg" fill="none" viewBox="0 0 57 58"><path fill="#E90044" d="M57.08699 28.9013c0 15.9608-12.779 28.9012-28.544 28.9012-15.764 0-28.543-12.9404-28.543-28.9012C-.00001 12.9404 12.78399 0 28.54899 0c15.765 0 28.544 12.9404 28.544 28.9013"/><path fill="#A80034" d="m30.67499.08594.006.01729c8.658.99719 13.142 7.19362 12.439 14.38727-.311 3.1472-2.548 5.8563-4.606 7.9199-2.824 2.6803-8.092 3.7697-11.614 4.8706-.041.0116-.081.0289-.127.0404-.79.2709-1.574.5591-2.352.8588-1.458.5592-3.101 1.1586-4.525 1.7984-1.694.7609-3.331 1.9541-4.945 2.8821-.387.2248-.761.4899-1.165.6859-.259.1268-3.055 2.248-3.274 2.5305-1.89 2.0059-3.055 3.1991-3.17 7.0091-.098 3.2395 2.605 8.5136 6.738 10.7155 4.243 2.5305 9.183 3.983 14.462 3.983 15.765 0 28.544-12.9404 28.544-28.9012 0-15.9609-11.643-27.69662-26.411-28.79756z"/><path fill="#fff" d="M30.22699 22.145c-.092.294-1.199.7724-1.464.9742-.438.3227-2.369 1.464-2.928 1.464-.992 0-1.805-1.1758-2.41-1.8445-.184-.2017-.323-.536-.467-.7493-.063-.098-.202-.5361-.196-.6571.012-.4554.801-.3516.969-.3228.922.1556 1.608.1844 2.288.2421.184.0173.369.0115.559.0173.594.0288 2.479.2017 3.067.4496.282.121.651.2478.593.4323m-2.334 7.8392c.017.196.034.3919.034.5822 0 .1498.075.5706.087.7262.029.4093.052.588-.236.8704-.283.2767-2.456 1.1471-3.211 1.4065-1.36.4611-2.727.9222-4.087 1.3776l-5.113 1.7177c-.374.1268-.807.2709-1.199.2248-1.296-.1499.047-1.8042.433-2.1039 1.072-.8473 2.219-1.614 3.268-2.5016.94-.7955 2.092-1.3834 3.153-2.0059 1.453-.8589 3.228-1.3373 4.744-1.9829.415-.1787.611-.2594 1.037-.3862.312-.0922.698-.2017 1.009-.1383-.132.6974.012 1.441.075 2.2192m4.807 10.1275c.144-.6859.306-1.3719.508-2.0578.115-.4035.236-.807.455-1.1701.478-.7897 1.383-.6629 2.185-.7782.697-.1037 1.394-.2363 2.098-.3343 1.199-.1671 2.334-.219 3.498.2018l.191.0691c.121.0461.242.0865.369.1096.697.1325 1.452.0518 2.104-.2248 2.173-.9281 1.948-4.3289-.104-5.1993-1.597-.6801-3.142-.5706-4.819-.5533-1.187.0115-2.375.0691-3.551.2651-.542.0922-1.078.2997-1.631.2825-.87-.0346-.905-.5534-1.182-1.2509-.184-.4611-.374-.9165-.57-1.3718-.231-.5188-.582-.9914-.894-1.4699.83-.4092 1.689-.7147 2.531-1.1009.997-.4669 1.942-1.0318 2.841-1.6658 1.678-1.1817 3.24-2.6054 4.479-4.2597 2.623-3.5104 2.571-9.0439.484-12.80788-.374-.68017-.916-1.48715-1.377-1.74077-.778-.43231-2.087-.68593-2.975-.66863-.611.01152-1.216.11528-1.792.31702-.594.20175-1.084.59371-1.695.72052-1.648.34584-3.326.55912-5.015.57641-.841.01153-2.732-.58218-3.314.35161-.236.37467-.294 1.12976-.305 1.56207-.024.61676.115 1.22776.334 1.80417.403 1.05488 1.02 2.00018 2.023 2.54198.455.2421.87.5418 1.383.5879.784.0634 1.441.2248 2.225-.0345.767-.2537 1.401-.7724 2.15-1.0261.738-.2536 2.185-.5994 2.9-.0807.674.49.49 1.2451.334 1.9368-.144.6398-.317 1.2681-.473 1.9021-.155.6514-.38 1.2278-.732 1.7984-.674 1.1125-1.527 2.3749-2.715 3.055.225-.1268-.541-2.1269-.639-2.3517-.306-.7205-.542-1.1817-1.228-1.5275-1.412-.709-2.911-1.026-4.49-.9915-.657.0116-1.309.1211-1.937.3113-.542.1614-1.614.6686-1.614.6686s.075-.1498.184-.2939c.093-.1153.231-.2479.346-.415l.104-.1499c1.187-1.6889.173-4.5652-1.101-5.93128-.438-.47266-.807-1.0606-1.314-1.45256-.969-.74933-1.833-1.53325-3.095-1.05483-.865.32856-1.384 1.09518-1.81 1.88487-.646 1.1932-1.211 2.444-1.499 3.7813-.455 2.0981-.536 4.3173.063 6.3981.669 2.3172 1.787 4.5191 3.326 6.5538.139.1845.265.3805.398.5764.674 1.0203 2.813 2.15 1.424 3.3375-.819.5648-1.972 1.1758-2.9 1.7522-.697.4324-3.233 2.0233-3.827 2.421-1.038.6917-4.052 2.9166-4.9 5.2857-.576 1.8964.41 3.983 2.237 4.6977 1.245.49 2.421.2191 3.522-.4611.818-.5072 1.7-.9453 2.565-1.3603.536-.2537 1.06-.5419 1.602-.784 2.606-1.147 5.349-1.954 8.082-2.8013.126-.0404.259-.0922.391-.1499.554-.2306 1.05-.3112 1.176.4439.046.2709-.057.4265-.126.6744-.098.3573-.116.7493-.173 1.1124-.237 1.6313-.479 3.2683-.525 4.9168-.075 2.738.381 5.4413.992 8.0986.149.6629.397 1.3949 1.083 1.6543.427.1672.871.294 1.337.294 1.436 0 2.767-1.0894 2.473-2.5881-.213-1.0837-.403-2.1788-.64-3.2567-.172-.7782-.149-1.5852-.138-2.3749.012-.7435-.052-1.4352.017-2.1846.156-1.6888.346-3.3489.686-4.9917"/></svg>