<svg xmlns="http://www.w3.org/2000/svg" viewBox="0 0 460 460"><path fill="#de3227" d="m74.71 195.52 91.08-91.08c20.28 6.3 42.37 1.61 58.35-12.37l28.74 28.74-45.98 45.98 201.15 201.15-45.98 45.98-201.15-201.15-34.48 34.48-51.72-51.72Zm5.75 97.7c36.03 37.6 85.85 58.86 137.93 58.86 70.6 0 127.82-57.23 127.82-127.82 0-78.9-48.5-149.68-122.08-178.16 101.57 0 183.91 82.34 183.91 183.91S325.7 413.92 224.13 413.92c-69.2 0-133.82-34.6-172.18-92.18l28.51-28.51Zm-17.24 74.71 22.99-22.99 22.99 22.99-22.99 22.99-22.99-22.99Z"/></svg>
