<svg xmlns="http://www.w3.org/2000/svg" viewBox="0 0 100 100">
    <path fill="#dc0228" d="M52.05 36.7c3.6-3.6 7.9-5.4 13.1-5.4 5.2 0 9.6 1.8 13.1 5.4 3.5 3.6 5.3 8 5.3 13.3 0 5.2-1.8 9.7-5.4 13.3-3.6 3.6-8 5.4-13.2 5.4-4.8 0-9.1-1.8-12.7-5.3-3.7-3.5-5.5-8.1-5.5-13.6 0-5.1 1.8-9.5 5.3-13.1m-4.5 32.4c5.1 4.4 10.9 6.7 17.3 6.7 7.3 0 13.5-2.5 18.6-7.5 5.1-5 7.7-11.1 7.7-18.2s-2.5-13.2-7.6-18.3c-5.1-5.1-11.1-7.6-18.2-7.6-7.2 0-13.3 2.5-18.4 7.5-5.1 5-7.7 11-7.7 18-.1 8.1 2.7 14.5 8.3 19.4m-31.2-37h2.5c7.1 0 10.7 2.6 10.7 7.7 0 5.3-3.4 8-10.3 8h-2.9V32.1zm3.5 22.6c5.2 0 9.3-1.3 12.3-4 3.1-2.7 4.6-6.3 4.6-10.8 0-4.3-1.4-7.8-4.3-10.6-1.6-1.6-3.5-2.7-5.7-3.3-2.1-.6-5.3-.9-9.4-.9h-8.5v49.8h7.5V54.7h3.5z"/>
</svg>
