<svg xmlns="http://www.w3.org/2000/svg" viewBox="0 0 1240 310"><g><path fill="#51da4c" d="M0 0h360v10H0z"/><path fill="currentColor" d="M410 0h540v10H410zm590 0h180v10h-180zm1000 0h180v10h-180zm640 0h360v10h-360z"/><path fill="#51da4c" d="M2230 0h360v10h-360zM1230 0h720v10h-720zm1820 0h360v10h-360z"/><path fill="currentColor" d="M3460 0h540v10h-540zm590 0h180v10h-180zm1000 0h180v10h-180zm640 0h360v10h-360z"/><path fill="#51da4c" d="M5280 0h360v10h-360zM4280 0h720v10h-720z"/><animateTransform attributeName="transform" attributeType="XML" dur="15s" from="-3050" repeatCount="indefinite" to="0" type="translate"/></g><g><path fill="#51da4c" d="M1770 60h180v10h-180z"/><path fill="currentColor" d="M590 60h360v10H590zm2000 0h540v10h-540z"/><path fill="#51da4c" d="M2000 60h540v10h-540zM0 60h540v10H0z"/><path fill="currentColor" d="M1000 60h720v10h-720z"/><path fill="#51da4c" d="M4950 60h180v10h-180z"/><path fill="currentColor" d="M3770 60h360v10h-360zm2000 0h540v10h-540z"/><path fill="#51da4c" d="M5180 60h540v10h-540zm-2000 0h540v10h-540z"/><path fill="currentColor" d="M4180 60h720v10h-720z"/><animateTransform attributeName="transform" attributeType="XML" dur="20s" from="0" repeatCount="indefinite" to="-3180" type="translate"/></g><g><path fill="currentColor" d="M230 120h180v10H230z"/><path fill="#51da4c" d="M0 120h180v10H0z"/><path fill="currentColor" d="M2640 120h360v10h-360zm-1000 0h360v10h-360z"/><path fill="#51da4c" d="M1230 120h360v10h-360zm820 0h540v10h-540zm-1590 0h720v10H460z"/><path fill="currentColor" d="M3280 120h180v10h-180z"/><path fill="#51da4c" d="M3050 120h180v10h-180z"/><path fill="currentColor" d="M5690 120h360v10h-360zm-1000 0h360v10h-360z"/><path fill="#51da4c" d="M4280 120h360v10h-360zm820 0h540v10h-540zm-1590 0h720v10h-720z"/><animateTransform attributeName="transform" attributeType="XML" dur="25s" from="-3050" repeatCount="indefinite" to="0" type="translate"/></g><g><path fill="#51da4c" d="M1820 180h180v10h-180z"/><path fill="currentColor" d="M1180 180h180v10h-180z"/><path fill="#51da4c" d="M2820 180h360v10h-360z"/><path fill="currentColor" d="M1410 180h360v10h-360z"/><path fill="#51da4c" d="M590 180h540v10H590z"/><path fill="currentColor" d="M0 180h540v10H0zm2050 0h720v10h-720z"/><path fill="#51da4c" d="M5050 180h180v10h-180z"/><path fill="currentColor" d="M4410 180h180v10h-180z"/><path fill="#51da4c" d="M6050 180h360v10h-360z"/><path fill="currentColor" d="M4640 180h360v10h-360z"/><path fill="#51da4c" d="M3820 180h540v10h-540z"/><path fill="currentColor" d="M3230 180h540v10h-540zm2050 0h720v10h-720z"/><animateTransform attributeName="transform" attributeType="XML" dur="15s" from="0" repeatCount="indefinite" to="-3230" type="translate"/></g><g><path fill="currentColor" d="M3050 240h180v10h-180zm-820 0h180v10h-180z"/><path fill="#51da4c" d="M410 240h180v10H410z"/><path fill="currentColor" d="M1820 240h360v10h-360z"/><path fill="#51da4c" d="M0 240h360v10H0zm2460 0h540v10h-540zm-1230 0h540v10h-540z"/><path fill="currentColor" d="M640 240h540v10H640zm5690 0h180v10h-180zm-820 0h180v10h-180z"/><path fill="#51da4c" d="M3690 240h180v10h-180z"/><path fill="currentColor" d="M5100 240h360v10h-360z"/><path fill="#51da4c" d="M3280 240h360v10h-360zm2460 0h540v10h-540zm-1230 0h540v10h-540z"/><path fill="currentColor" d="M3920 240h540v10h-540z"/><animateTransform attributeName="transform" attributeType="XML" dur="20s" from="-3280" repeatCount="indefinite" to="0" type="translate"/></g><g><path fill="#51da4c" d="M770 300h180v10H770z"/><path fill="currentColor" d="M2180 300h360v10h-360z"/><path fill="#51da4c" d="M1770 300h360v10h-360zm820 0h540v10h-540z"/><path fill="currentColor" d="M1000 300h720v10h-720zM0 300h720v10H0z"/><path fill="#51da4c" d="M3950 300h180v10h-180z"/><path fill="currentColor" d="M5360 300h360v10h-360z"/><path fill="#51da4c" d="M4950 300h360v10h-360zm820 0h540v10h-540z"/><path fill="currentColor" d="M4180 300h720v10h-720zm-1000 0h720v10h-720z"/><animateTransform attributeName="transform" attributeType="XML" dur="15s" from="0" repeatCount="indefinite" to="-3180" type="translate"/></g></svg>
