<svg xmlns="http://www.w3.org/2000/svg" viewBox="0 0 1240 310"><g><path fill="#51da4c" d="M0 0h360v10H0z"/><path fill="#fff" d="M410 0h540v10H410zm590 0h180v10h-180zm1000 0h180v10h-180zm640 0h360v10h-360z"/><path fill="#51da4c" d="M2230 0h360v10h-360zM1230 0h720v10h-720zm1820 0h360v10h-360z"/><animateTransform attributeName="transform" attributeType="XML" dur="15s" from="-3050" repeatCount="indefinite" to="0" type="translate"/></g><g><path fill="#fff" d="M590 60h360v10H590zm2000 0h540v10h-540z"/><path fill="#51da4c" d="M2000 60h540v10h-540zM0 60h540v10H0z"/><path fill="#fff" d="M1000 60h720v10h-720z"/><animateTransform attributeName="transform" attributeType="XML" dur="20s" from="0" repeatCount="indefinite" to="-3180" type="translate"/></g><g><path fill="#fff" d="M230 120h180v10H230z"/><path fill="#51da4c" d="M0 120h180v10H0zm1230 0h360v10h-360zm820 0h540v10h-540zm-1590 0h720v10H460z"/><animateTransform attributeName="transform" attributeType="XML" dur="25s" from="-3050" repeatCount="indefinite" to="0" type="translate"/></g><g><path fill="#fff" d="M1180 180h180v10h-180z"/><path fill="#51da4c" d="M590 180h540v10H590z"/><path fill="#fff" d="M0 180h540v10H0zm2050 0h720v10h-720z"/><animateTransform attributeName="transform" attributeType="XML" dur="15s" from="0" repeatCount="indefinite" to="-3230" type="translate"/></g><g><path fill="#51da4c" d="M410 240h180v10H410zM0 240h360v10H0zm2460 0h540v10h-540zm-1230 0h540v10h-540z"/><path fill="#fff" d="M640 240h540v10H640zm5690 0h180v10h-180zm-820 0h180v10h-180z"/><animateTransform attributeName="transform" attributeType="XML" dur="20s" from="-3280" repeatCount="indefinite" to="0" type="translate"/></g><g><path fill="#51da4c" d="M770 300h180v10H770z"/><path fill="#fff" d="M1000 300h720v10h-720zM0 300h720v10H0z"/><animateTransform attributeName="transform" attributeType="XML" dur="15s" from="0" repeatCount="indefinite" to="-3180" type="translate"/></g></svg>
