<svg xmlns="http://www.w3.org/2000/svg" xmlns:xlink="http://www.w3.org/1999/xlink" xml:space="preserve" viewBox="0 0 220 220">
	<symbol id="a" viewBox="-75 -30 150 60">
		<path fill="#3b79b7" d="M-25.39-17.79-29.84-30h-23.32L-75 30h22.03l9.51-35.5 9.51 35.5H-8l-.02-.05C-21.25 26.42-31 14.35-31-.01c0-6.61 2.07-12.74 5.61-17.78zM0 15c-8.28 0-15-6.72-15-15 0-8.28 6.72-15 15-15 8.28 0 15 6.71 15 15 0 8.28-6.72 15-15 15zM31 .01c0-14.35-9.75-26.42-22.98-29.96L8-30h25.95l9.51 35.5L52.97-30H75L53.16 30H29.84l-4.45-12.21C28.93 12.75 31 6.62 31 .01z"/>
	</symbol>
	<use xlink:href="#a" width="150" height="60" x="-67.90302" y="-82.5013" overflow="visible" transform="matrix(1.3333 0 0 -1.3333 100.538 40)"/>
</svg>
