<svg xmlns="http://www.w3.org/2000/svg" viewBox="0 0 300 201"><g filter="blur(12px)"><rect width="200%" height="200%" x="-50%" y="-50%" fill="#a88761"/><rect width="100%" height="100%" fill="#a88761"/><g fill-opacity=".5" transform="translate(.6 .6) scale(1.17188)"><circle cx="151" cy="121" r="154" fill="#0b0718"/><path fill="#ffd7b2" d="m25 97.8 55.9 42L55 174.3l-55.9-42z"/><circle r="1" fill="#000213" transform="matrix(58.29775 22.98565 -15.07604 38.23686 120 114.7)"/><path fill="#de8a69" d="m169 80 47-65-23 172z"/><path d="m23.1 177.8 1.8-34.9 24 1.3-1.8 34.9z"/><circle r="1" fill="#001" transform="matrix(-11.4404 -33.3787 24.01149 -8.22983 233.3 100.8)"/><circle r="1" fill="#fffab3" transform="matrix(9.21183 16.48264 -11.34885 6.34266 66.7 11)"/><circle r="1" fill="#ff833a" transform="rotate(139.8 .7 56.3) scale(24.90716 14.87103)"/></g></g></svg>
