<svg xmlns="http://www.w3.org/2000/svg" viewBox="0 0 912.02 328.82"><defs><style>.cls-1{isolation:isolate}.cls-3,.cls-6{stroke-width:0}.cls-3{fill:#fff}.cls-6{fill:#303030}</style></defs><g class="cls-1"><g id="_图层_2" data-name="图层 2"><g id="OBJECTS"><g class="cls-1"><path d="M896.65 176.5c5.31-4.58 10.44-9.3 15.37-14.14l-5.71-16.09c-8.5 8.11-9.19 8.77-15.37 14.14l5.71 16.09" class="cls-6"/><path d="M880.13 189.85c5.68-4.31 11.19-8.76 16.52-13.36l-5.71-16.09c-5.33 4.59-10.84 9.05-16.52 13.36l5.71 16.09" class="cls-3"/><path d="M862.61 202.34c6-4.01 11.85-8.18 17.53-12.49l-5.71-16.09c-5.68 4.31-11.53 8.48-17.53 12.49 1.71 4.83 4 11.26 5.71 16.09" class="cls-6"/><path d="M844.18 213.9c6.28-3.69 12.43-7.55 18.43-11.56-1.71-4.83-4-11.26-5.71-16.09-6 4.01-12.14 7.87-18.43 11.56 1.71 4.83 4 11.26 5.71 16.09" class="cls-3"/><path d="M824.95 224.49c6.53-3.36 12.95-6.89 19.23-10.59-1.71-4.83-4-11.26-5.71-16.09-6.28 3.69-12.7 7.23-19.23 10.59l5.71 16.09" class="cls-6"/><path d="M805.03 234.05c6.75-3.01 13.39-6.2 19.92-9.56l-5.71-16.09c-6.53 3.36-13.18 6.55-19.92 9.56l5.71 16.09" class="cls-3"/><path d="M784.5 242.54c6.93-2.65 13.78-5.48 20.52-8.49l-5.71-16.09c-6.75 3.01-13.59 5.85-20.52 8.49l5.71 16.09" class="cls-6"/><path d="M763.49 249.91c7.08-2.26 14.09-4.72 21.02-7.37l-5.71-16.09c-6.93 2.65-13.94 5.1-21.02 7.37 1.71 4.83 4 11.26 5.71 16.09" class="cls-3"/><path d="M741.46 256.26c1.7-.43 3.44-.89 5.2-1.37 5.64-1.54 11.25-3.2 16.83-4.98-1.71-4.83-4-11.26-5.71-16.09-5.57 1.78-11.18 3.44-16.83 4.98-1.76.48-3.5.94-5.2 1.37l5.71 16.09" class="cls-6"/><path d="M719.19 260.92c6.87-1.07 14.24-2.62 22.27-4.66l-5.71-16.09c-8.03 2.05-15.4 3.59-22.27 4.66l5.71 16.09" class="cls-3"/><path d="M698.87 262.73c2.33-.03 4.71-.13 7.15-.3 4.19-.29 8.57-.8 13.17-1.51l-5.71-16.09c-4.61.72-8.98 1.22-13.17 1.51-2.44.17-4.83.27-7.15.3l5.71 16.09" class="cls-6"/><path d="M677.48 260.69c4.8 1.08 9.98 1.74 15.45 1.96 1.94.08 3.92.11 5.94.08l-5.71-16.09c-2.02.03-4 0-5.94-.08-5.47-.22-10.65-.89-15.45-1.96l5.71 16.09" class="cls-3"/><path d="M659.84 253.87c4.96 3 10.92 5.31 17.64 6.82l-5.71-16.09c-6.71-1.51-12.68-3.81-17.64-6.82 1.71 4.83 2.48 12.12 5.71 16.09" class="cls-6"/><path d="M648.08 242.65c.61.96 1.27 1.9 1.99 2.81 2.54 3.21 5.84 6.02 9.77 8.4-1.71-4.83-4-11.26-5.71-16.09-3.93-2.38-7.23-5.2-9.77-8.4-.72-.91-1.39-1.85-1.99-2.81l5.71 16.09" class="cls-3"/><path d="M644.38 234.91c.96 2.7 2.15 5.3 3.7 7.74l-5.71-16.09c-1.54-2.44-2.74-5.05-3.7-7.74l5.71 16.09" class="cls-6"/><path d="M890.94 160.4c8.89-7.88 9.61-8.53 15.37-14.14l-5.78-16.27c-4.93 4.84-10.06 9.56-15.37 14.14l5.78 16.27" class="cls-3"/><path d="M868.64 157.49c5.68-4.31 11.19-8.76 16.52-13.36l5.78 16.27c-5.33 4.59-10.84 9.05-16.52 13.36l-5.78-16.27" class="cls-6"/><path d="M851.11 169.98c6-4.01 11.85-8.18 17.53-12.49l5.78 16.27c-5.68 4.31-11.53 8.48-17.53 12.49l-5.78-16.27" class="cls-3"/><path d="M832.69 181.53c6.28-3.69 12.43-7.55 18.43-11.56l5.78 16.27c-6 4.01-12.14 7.87-18.43 11.56l-5.78-16.27" class="cls-6"/><path d="M813.45 192.12c6.53-3.36 12.95-6.89 19.23-10.59l5.78 16.27c-6.28 3.69-12.7 7.23-19.23 10.59l-5.78-16.27" class="cls-3"/><path d="M793.53 201.68c6.75-3.01 13.39-6.2 19.92-9.56l5.78 16.27c-6.53 3.36-13.18 6.55-19.92 9.56l-5.78-16.27" class="cls-6"/><path d="M773.01 210.17c6.93-2.65 13.78-5.48 20.52-8.49l5.78 16.27c-6.75 3.01-13.59 5.85-20.52 8.49l-5.78-16.27" class="cls-3"/><path d="M751.99 217.54c7.08-2.26 14.09-4.72 21.02-7.37l5.78 16.27c-6.93 2.65-13.94 5.1-21.02 7.37l-5.78-16.27" class="cls-6"/><path d="M729.96 223.89c1.7-.43 3.44-.89 5.2-1.37 5.64-1.54 11.25-3.2 16.83-4.98l5.78 16.27c-5.57 1.78-11.18 3.44-16.83 4.98-1.76.48-3.5.94-5.2 1.37l-5.78-16.27" class="cls-3"/><path d="M707.7 228.55c6.87-1.07 14.24-2.62 22.27-4.66l5.78 16.27c-8.03 2.05-15.4 3.59-22.27 4.66l-5.78-16.27" class="cls-6"/><path d="M687.37 230.37c2.33-.03 4.71-.13 7.15-.3 4.19-.29 8.57-.8 13.17-1.51l5.78 16.27c-4.61.72-8.98 1.22-13.17 1.51-2.44.17-4.83.27-7.15.3l-5.78-16.27" class="cls-3"/><path d="M665.99 228.32c4.8 1.08 9.98 1.74 15.45 1.96 1.94.08 3.92.11 5.94.08l5.78 16.27c-2.02.03-4 0-5.94-.08-5.47-.22-10.65-.89-15.45-1.96l-5.78-16.27" class="cls-6"/><path d="M648.35 221.51c4.96 3 10.92 5.31 17.64 6.82l5.78 16.27c-6.71-1.51-12.68-3.81-17.64-6.82l-5.78-16.27" class="cls-3"/><path d="M636.58 210.29c.61.96 1.27 1.9 1.99 2.81 2.54 3.21 5.84 6.02 9.77 8.4l5.78 16.27c-3.93-2.38-7.23-5.2-9.77-8.4-.72-.91-1.39-1.85-1.99-2.81l-5.78-16.27" class="cls-6"/><path d="M638.66 218.82c.96 2.7 2.15 5.3 3.7 7.74l-5.78-16.27c-1.54-2.44-2.74-5.05-3.7-7.74l5.78 16.27" class="cls-3"/><path d="M885.16 144.13c5.31-4.58 10.44-9.3 15.37-14.14l-5.78-16.27c-4.93 4.84-10.06 9.56-15.37 14.14l5.78 16.27" class="cls-6"/><path d="M862.86 141.22c5.68-4.31 11.19-8.76 16.52-13.36l5.78 16.27c-5.33 4.59-10.84 9.05-16.52 13.36l-5.78-16.27" class="cls-3"/><path d="M845.33 153.71c6-4.01 11.85-8.18 17.53-12.49l5.78 16.27c-5.68 4.31-11.53 8.48-17.53 12.49l-5.78-16.27" class="cls-6"/><path d="M826.91 165.27c6.28-3.69 12.43-7.55 18.43-11.56l5.78 16.27c-6 4.01-12.14 7.87-18.43 11.56l-5.78-16.27" class="cls-3"/><path d="M807.68 175.85c6.53-3.36 12.95-6.89 19.23-10.59l5.78 16.27c-6.28 3.69-12.7 7.23-19.23 10.59l-5.78-16.27" class="cls-6"/><path d="M787.75 185.41c6.75-3.01 13.39-6.2 19.92-9.56l5.78 16.27c-6.53 3.36-13.18 6.55-19.92 9.56l-5.78-16.27" class="cls-3"/><path d="M767.23 193.91c6.93-2.65 13.78-5.48 20.52-8.49l5.78 16.27c-6.75 3.01-13.59 5.85-20.52 8.49l-5.78-16.27" class="cls-6"/><path d="M746.21 201.27c7.08-2.26 14.09-4.72 21.02-7.37l5.78 16.27c-6.93 2.65-13.94 5.1-21.02 7.37l-5.78-16.27" class="cls-3"/><path d="M724.19 207.62c1.7-.43 3.44-.89 5.2-1.37 5.64-1.54 11.25-3.2 16.83-4.98l5.78 16.27c-5.57 1.78-11.18 3.44-16.83 4.98-1.76.48-3.5.94-5.2 1.37l-5.78-16.27" class="cls-6"/><path d="M701.92 212.29c6.87-1.07 14.24-2.62 22.27-4.66l5.78 16.27c-8.03 2.05-15.4 3.59-22.27 4.66l-5.78-16.27" class="cls-3"/><path d="M681.59 214.1c2.33-.03 4.71-.13 7.15-.3 4.19-.29 8.57-.8 13.17-1.51l5.78 16.27c-4.61.72-8.98 1.22-13.17 1.51-2.44.17-4.83.27-7.15.3l-5.78-16.27" class="cls-6"/><path d="M660.21 212.05c4.8 1.08 9.98 1.74 15.45 1.96 1.94.08 3.92.11 5.94.08l5.78 16.27c-2.02.03-4 0-5.94-.08-5.47-.22-10.65-.89-15.45-1.96l-5.78-16.27" class="cls-3"/><path d="M642.57 205.24c4.96 3 10.92 5.31 17.64 6.82l5.78 16.27c-6.71-1.51-12.68-3.81-17.64-6.82l-5.78-16.27" class="cls-6"/><path d="M630.8 194.02c.61.96 1.27 1.9 1.99 2.81 2.54 3.21 5.84 6.02 9.77 8.4l5.78 16.27c-3.93-2.38-7.23-5.2-9.77-8.4-.72-.91-1.39-1.85-1.99-2.81l-5.78-16.27" class="cls-3"/><path d="M632.89 202.55c.96 2.7 2.15 5.3 3.7 7.74l-5.78-16.27c-1.54-2.44-2.74-5.05-3.7-7.74l5.78 16.27" class="cls-6"/><path d="M879.38 127.86c5.31-4.58 10.44-9.3 15.37-14.14l-5.78-16.27c-4.93 4.84-10.06 9.56-15.37 14.14l5.78 16.27" class="cls-3"/><path d="M857.08 124.95c5.68-4.31 11.19-8.76 16.52-13.36l5.78 16.27c-5.33 4.59-10.84 9.05-16.52 13.36l-5.78-16.27" class="cls-6"/><path d="M839.55 137.43c6-4.01 11.85-8.18 17.53-12.49l5.78 16.27c-5.68 4.31-11.53 8.48-17.53 12.49l-5.78-16.27" class="cls-3"/><path d="M821.13 148.99c6.28-3.69 12.43-7.55 18.43-11.56l5.78 16.27c-6 4.01-12.14 7.87-18.43 11.56l-5.78-16.27" class="cls-6"/><path d="M801.9 159.58c6.53-3.36 12.95-6.89 19.23-10.59l5.78 16.27c-6.28 3.69-12.7 7.23-19.23 10.59l-5.78-16.27" class="cls-3"/><path d="M781.97 169.14c6.75-3.01 13.39-6.2 19.92-9.56l5.78 16.27c-6.53 3.36-13.18 6.55-19.92 9.56l-5.78-16.27" class="cls-6"/><path d="M761.45 177.63c6.93-2.65 13.78-5.48 20.52-8.49l5.78 16.27c-6.75 3.01-13.59 5.85-20.52 8.49l-5.78-16.27" class="cls-3"/><path d="M740.43 185c7.08-2.26 14.09-4.72 21.02-7.37l5.78 16.27c-6.93 2.65-13.94 5.1-21.02 7.37L740.43 185" class="cls-6"/><path d="M718.41 191.35c1.7-.43 3.44-.89 5.2-1.37 5.64-1.54 11.25-3.2 16.83-4.98l5.78 16.27c-5.57 1.78-11.18 3.44-16.83 4.98-1.76.48-3.5.94-5.2 1.37l-5.78-16.27" class="cls-3"/><path d="M696.14 196.01c6.87-1.07 14.24-2.62 22.27-4.66l5.78 16.27c-8.03 2.05-15.4 3.59-22.27 4.66l-5.78-16.27" class="cls-6"/><path d="M675.81 197.83c2.33-.03 4.71-.13 7.15-.3 4.19-.29 8.57-.8 13.17-1.51l5.78 16.27c-4.61.72-8.98 1.22-13.17 1.51-2.44.17-4.83.27-7.15.3l-5.78-16.27" class="cls-3"/><path d="M654.43 195.78c4.8 1.08 9.98 1.74 15.45 1.96 1.94.08 3.92.11 5.94.08l5.78 16.27c-2.02.03-4 0-5.94-.08-5.47-.22-10.65-.89-15.45-1.96l-5.78-16.27" class="cls-6"/><path d="M636.79 188.96c4.96 3 10.92 5.31 17.64 6.82l5.78 16.27c-6.71-1.51-12.68-3.81-17.64-6.82l-5.78-16.27" class="cls-3"/><path d="M625.03 177.75c.61.96 1.27 1.9 1.99 2.81 2.54 3.21 5.84 6.02 9.77 8.4l5.78 16.27c-3.93-2.38-7.23-5.2-9.77-8.4-.72-.91-1.39-1.85-1.99-2.81l-5.78-16.27" class="cls-6"/><path d="M627.11 186.28c.96 2.7 2.15 5.3 3.7 7.74l-5.78-16.27c-1.54-2.44-2.74-5.05-3.7-7.74l5.78 16.27" class="cls-3"/><path d="M873.6 111.59c5.31-4.58 10.44-9.3 15.37-14.14l-5.78-16.27c-4.93 4.84-10.06 9.56-15.37 14.14l5.78 16.27" class="cls-6"/><path d="M851.31 108.68c5.68-4.31 11.19-8.76 16.52-13.36l5.78 16.27c-5.33 4.59-10.84 9.05-16.52 13.36l-5.78-16.27" class="cls-3"/><path d="M833.78 121.16c6-4.01 11.85-8.18 17.53-12.49l5.78 16.27c-5.68 4.31-11.53 8.48-17.53 12.49l-5.78-16.27" class="cls-6"/><path d="M815.35 132.72c6.28-3.69 12.43-7.55 18.43-11.56l5.78 16.27c-6 4.01-12.14 7.87-18.43 11.56l-5.78-16.27" class="cls-3"/><path d="M796.12 143.31c6.53-3.36 12.95-6.89 19.23-10.59l5.78 16.27c-6.28 3.69-12.7 7.23-19.23 10.59l-5.78-16.27" class="cls-6"/><path d="M776.2 152.87c6.75-3.01 13.39-6.2 19.92-9.56l5.78 16.27c-6.53 3.36-13.18 6.55-19.92 9.56l-5.78-16.27" class="cls-3"/><path d="M755.67 161.36c6.93-2.65 13.78-5.48 20.52-8.49l5.78 16.27c-6.75 3.01-13.59 5.85-20.52 8.49l-5.78-16.27" class="cls-6"/><path d="M734.66 168.73c7.08-2.26 14.09-4.72 21.02-7.37l5.78 16.27c-6.93 2.65-13.94 5.1-21.02 7.37l-5.78-16.27" class="cls-3"/><path d="M712.63 175.08c1.7-.43 3.44-.89 5.2-1.37 5.64-1.54 11.25-3.2 16.83-4.98l5.78 16.27c-5.57 1.78-11.18 3.44-16.83 4.98-1.76.48-3.5.94-5.2 1.37l-5.78-16.27" class="cls-6"/><path d="M690.36 179.74c6.87-1.07 14.24-2.62 22.27-4.66l5.78 16.27c-8.03 2.05-15.4 3.59-22.27 4.66l-5.78-16.27" class="cls-3"/><path d="M670.04 181.56c2.33-.03 4.71-.13 7.15-.3 4.19-.29 8.57-.8 13.17-1.51l5.78 16.27c-4.61.72-8.98 1.22-13.17 1.51-2.44.17-4.83.27-7.15.3l-5.78-16.27" class="cls-6"/><path d="M648.65 179.51c4.8 1.08 9.98 1.74 15.45 1.96 1.94.08 3.92.11 5.94.08l5.78 16.27c-2.02.03-4 0-5.94-.08-5.47-.22-10.65-.89-15.45-1.96l-5.78-16.27" class="cls-3"/><path d="M631.01 172.7c4.96 3 10.92 5.31 17.64 6.82l5.78 16.27c-6.71-1.51-12.68-3.81-17.64-6.82l-5.78-16.27" class="cls-6"/><path d="M619.25 161.48c.61.96 1.27 1.9 1.99 2.81 2.54 3.21 5.84 6.02 9.77 8.4l5.78 16.27c-3.93-2.38-7.23-5.2-9.77-8.4-.72-.91-1.39-1.85-1.99-2.81l-5.78-16.27" class="cls-3"/><path d="M621.33 170c.96 2.7 2.15 5.3 3.7 7.74l-5.78-16.27c-1.18-1.96-2.19-3.65-3.7-7.74l5.78 16.27" class="cls-6"/><path d="M867.82 95.32c5.31-4.58 10.44-9.3 15.37-14.14l-5.78-16.27c-4.93 4.84-10.06 9.56-15.37 14.14l5.78 16.27" class="cls-3"/><path d="M845.53 92.4c5.68-4.31 11.19-8.76 16.52-13.36l5.78 16.27c-5.33 4.59-10.84 9.05-16.52 13.36l-5.78-16.27" class="cls-6"/><path d="M828 104.89c6-4.01 11.85-8.18 17.53-12.49l5.78 16.27c-5.68 4.31-11.53 8.48-17.53 12.49L828 104.89" class="cls-3"/><path d="M809.57 116.45c6.28-3.69 12.43-7.55 18.43-11.56l5.78 16.27c-6 4.01-12.14 7.87-18.43 11.56l-5.78-16.27" class="cls-6"/><path d="M790.34 127.04c6.53-3.36 12.95-6.89 19.23-10.59l5.78 16.27c-6.28 3.69-12.7 7.23-19.23 10.59l-5.78-16.27" class="cls-3"/><path d="M770.42 136.6c6.75-3.01 13.39-6.2 19.92-9.56l5.78 16.27c-6.53 3.36-13.18 6.55-19.92 9.56l-5.78-16.27" class="cls-6"/><path d="M749.89 145.09c6.93-2.65 13.78-5.48 20.52-8.49l5.78 16.27c-6.75 3.01-13.59 5.85-20.52 8.49l-5.78-16.27" class="cls-3"/><path d="M728.88 152.46c7.08-2.26 14.09-4.72 21.02-7.37l5.78 16.27c-6.93 2.65-13.94 5.1-21.02 7.37l-5.78-16.27" class="cls-6"/><path d="M706.85 158.81c1.7-.43 3.44-.89 5.2-1.37 5.64-1.54 11.25-3.2 16.83-4.98l5.78 16.27c-5.57 1.78-11.18 3.44-16.83 4.98-1.76.48-3.5.94-5.2 1.37l-5.78-16.27" class="cls-3"/><path d="M684.58 163.47c6.87-1.07 14.24-2.62 22.27-4.66l5.78 16.27c-8.03 2.05-15.4 3.59-22.27 4.66l-5.78-16.27" class="cls-6"/><path d="M664.26 165.28c2.33-.03 4.71-.13 7.15-.3 4.19-.29 8.57-.8 13.17-1.51l5.78 16.27c-4.61.72-8.98 1.22-13.17 1.51-2.44.17-4.83.27-7.15.3l-5.78-16.27" class="cls-3"/><path d="M642.87 163.24c4.8 1.08 9.98 1.74 15.45 1.96 1.94.08 3.92.11 5.94.08l5.78 16.27c-2.02.03-4 0-5.94-.08-5.47-.22-10.65-.89-15.45-1.96l-5.78-16.27" class="cls-6"/><path d="M625.24 156.42c4.96 3 10.92 5.31 17.64 6.82l5.78 16.27c-6.71-1.51-12.68-3.81-17.64-6.82l-5.78-16.27" class="cls-3"/><path d="M613.47 145.2c.61.96 1.27 1.9 1.99 2.81 2.54 3.21 5.84 6.02 9.77 8.4l5.78 16.27c-3.93-2.38-7.23-5.2-9.77-8.4-.72-.91-1.39-1.85-1.99-2.81l-5.78-16.27" class="cls-6"/><path d="M615.55 153.73c1.14 3.05 1.91 4.8 3.7 7.74l-5.78-16.27c-1.54-2.44-2.74-5.05-3.7-7.74l5.78 16.27" class="cls-3"/><path d="M862.04 79.05c5.31-4.58 10.44-9.3 15.37-14.14l-5.78-16.27c-4.93 4.84-10.06 9.56-15.37 14.14l5.78 16.27" class="cls-6"/><path d="M839.75 76.13c5.68-4.31 11.19-8.76 16.52-13.36l5.78 16.27c-5.33 4.59-10.84 9.05-16.52 13.36l-5.78-16.27" class="cls-3"/><path d="M822.22 88.62c6-4.01 11.85-8.18 17.53-12.49l5.78 16.27c-5.68 4.31-11.53 8.48-17.53 12.49l-5.78-16.27" class="cls-6"/><path d="M803.79 100.18c6.28-3.69 12.43-7.55 18.43-11.56l5.78 16.27c-6 4.01-12.14 7.87-18.43 11.56l-5.78-16.27" class="cls-3"/><path d="M784.56 110.77c6.53-3.36 12.95-6.89 19.23-10.59l5.78 16.27c-6.28 3.69-12.7 7.23-19.23 10.59l-5.78-16.27" class="cls-6"/><path d="M764.64 120.33c6.75-3.01 13.39-6.2 19.92-9.56l5.78 16.27c-6.53 3.36-13.18 6.55-19.92 9.56l-5.78-16.27" class="cls-3"/><path d="M744.12 128.82c6.93-2.65 13.78-5.48 20.52-8.49l5.78 16.27c-6.75 3.01-13.59 5.85-20.52 8.49l-5.78-16.27" class="cls-6"/><path d="M723.1 136.19c7.08-2.26 14.09-4.72 21.02-7.37l5.78 16.27c-6.93 2.65-13.94 5.1-21.02 7.37l-5.78-16.27" class="cls-3"/><path d="M701.07 142.54c1.7-.43 3.44-.89 5.2-1.37 5.64-1.54 11.25-3.2 16.83-4.98l5.78 16.27c-5.57 1.78-11.18 3.44-16.83 4.98-1.76.48-3.5.94-5.2 1.37l-5.78-16.27" class="cls-6"/><path d="M678.8 147.2c6.87-1.07 14.24-2.62 22.27-4.66l5.78 16.27c-8.03 2.05-15.4 3.59-22.27 4.66l-5.78-16.27" class="cls-3"/><path d="M658.48 149.01c2.33-.03 4.71-.13 7.15-.3 4.19-.29 8.57-.8 13.17-1.51l5.78 16.27c-4.61.72-8.98 1.22-13.17 1.51-2.44.17-4.83.27-7.15.3l-5.78-16.27" class="cls-6"/><path d="M637.09 146.97c4.8 1.08 9.98 1.74 15.45 1.96 1.94.08 3.92.11 5.94.08l5.78 16.27c-2.02.03-4 0-5.94-.08-5.47-.22-10.65-.89-15.45-1.96l-5.78-16.27" class="cls-3"/><path d="M619.46 140.15c4.96 3 10.92 5.31 17.64 6.82l5.78 16.27c-6.71-1.51-12.68-3.81-17.64-6.82l-5.78-16.27" class="cls-6"/><path d="M607.69 128.93c.61.96 1.27 1.9 1.99 2.81 2.54 3.21 5.84 6.02 9.77 8.4l5.78 16.27c-3.93-2.38-7.23-5.2-9.77-8.4-.72-.91-1.39-1.85-1.99-2.81l-5.78-16.27" class="cls-3"/><path d="M609.77 137.46c.96 2.7 2.15 5.3 3.7 7.74l-5.78-16.27c-1.54-2.44-2.74-5.05-3.7-7.74l5.78 16.27" class="cls-6"/><path d="M856.27 62.78c5.31-4.58 10.44-9.3 15.37-14.14l-5.78-16.27c-4.93 4.84-10.06 9.56-15.37 14.14l5.78 16.27" class="cls-3"/><path d="M833.97 59.86c5.68-4.31 11.19-8.76 16.52-13.36l5.78 16.27c-5.33 4.59-10.84 9.05-16.52 13.36l-5.78-16.27" class="cls-6"/><path d="M816.44 72.35c6-4.01 11.85-8.18 17.53-12.49l5.78 16.27c-5.68 4.31-11.53 8.48-17.53 12.49l-5.78-16.27" class="cls-3"/><path d="M798.01 83.91c6.28-3.69 12.43-7.55 18.43-11.56l5.78 16.27c-6 4.01-12.14 7.87-18.43 11.56l-5.78-16.27" class="cls-6"/><path d="M778.78 94.49c6.53-3.36 12.95-6.89 19.23-10.59l5.78 16.27c-6.28 3.69-12.7 7.23-19.23 10.59l-5.78-16.27" class="cls-3"/><path d="M758.86 104.06c6.75-3.01 13.39-6.2 19.92-9.56l5.78 16.27c-6.53 3.36-13.18 6.55-19.92 9.56l-5.78-16.27" class="cls-6"/><path d="M738.34 112.55c6.93-2.65 13.78-5.48 20.52-8.49l5.78 16.27c-6.75 3.01-13.59 5.85-20.52 8.49l-5.78-16.27" class="cls-3"/><path d="M717.32 119.91c7.08-2.26 14.09-4.72 21.02-7.37l5.78 16.27c-6.93 2.65-13.94 5.1-21.02 7.37l-5.78-16.27" class="cls-6"/><path d="M695.29 126.26c1.7-.43 3.44-.89 5.2-1.37 5.64-1.54 11.25-3.2 16.83-4.98l5.78 16.27c-5.57 1.78-11.18 3.44-16.83 4.98-1.76.48-3.5.94-5.2 1.37l-5.78-16.27" class="cls-3"/><path d="M673.03 130.93c6.87-1.07 14.24-2.62 22.27-4.66l5.78 16.27c-8.03 2.05-15.4 3.59-22.27 4.66l-5.78-16.27" class="cls-6"/><path d="M652.7 132.74c2.33-.03 4.71-.13 7.15-.3 4.19-.29 8.57-.8 13.17-1.51l5.78 16.27c-4.61.72-8.98 1.22-13.17 1.51-2.44.17-4.83.27-7.15.3l-5.78-16.27" class="cls-3"/><path d="M631.31 130.7c4.8 1.08 9.98 1.74 15.45 1.96 1.94.08 3.92.11 5.94.08l5.78 16.27c-2.02.03-4 0-5.94-.08-5.47-.22-10.65-.89-15.45-1.96l-5.78-16.27" class="cls-6"/><path d="M613.68 123.88c4.96 3 10.92 5.31 17.64 6.82l5.78 16.27c-6.71-1.51-12.68-3.81-17.64-6.82l-5.78-16.27" class="cls-3"/><path d="M601.91 112.66c.61.96 1.27 1.9 1.99 2.81 2.54 3.21 5.84 6.02 9.77 8.4l5.78 16.27c-3.93-2.38-7.23-5.2-9.77-8.4-.72-.91-1.39-1.85-1.99-2.81l-5.78-16.27" class="cls-6"/><path d="M603.99 121.19c.96 2.7 2.15 5.3 3.7 7.74l-5.78-16.27c-1.54-2.44-2.74-5.05-3.7-7.74l5.78 16.27" class="cls-3"/><path d="M850.49 46.5c5.31-4.58 10.44-9.3 15.37-14.14l-5.78-16.27c-4.93 4.84-10.06 9.56-15.37 14.14l5.78 16.27" class="cls-6"/><path d="M828.19 43.59c5.68-4.31 11.19-8.76 16.52-13.36l5.78 16.27c-5.33 4.59-10.84 9.05-16.52 13.36l-5.78-16.27" class="cls-3"/><path d="M810.66 56.08c6-4.01 11.85-8.18 17.53-12.49l5.78 16.27c-5.68 4.31-11.53 8.48-17.53 12.49l-5.78-16.27" class="cls-6"/><path d="M792.24 67.64c6.28-3.69 12.43-7.55 18.43-11.56l5.78 16.27c-6 4.01-12.14 7.87-18.43 11.56l-5.78-16.27" class="cls-3"/><path d="M773.01 78.23c6.53-3.36 12.95-6.89 19.23-10.59l5.78 16.27c-6.28 3.69-12.7 7.23-19.23 10.59l-5.78-16.27" class="cls-6"/><path d="M753.08 87.79c6.75-3.01 13.39-6.2 19.92-9.56l5.78 16.27c-6.53 3.36-13.18 6.55-19.92 9.56l-5.78-16.27" class="cls-3"/><path d="M732.56 96.28c6.93-2.65 13.78-5.48 20.52-8.49l5.78 16.27c-6.75 3.01-13.59 5.85-20.52 8.49l-5.78-16.27" class="cls-6"/><path d="M711.54 103.65c7.08-2.26 14.09-4.72 21.02-7.37l5.78 16.27c-6.93 2.65-13.94 5.1-21.02 7.37l-5.78-16.27" class="cls-3"/><path d="M689.51 109.99c1.7-.43 3.44-.89 5.2-1.37 5.64-1.54 11.25-3.2 16.83-4.98l5.78 16.27c-5.57 1.78-11.18 3.44-16.83 4.98-1.76.48-3.5.94-5.2 1.37l-5.78-16.27" class="cls-6"/><path d="M667.25 114.66c6.87-1.07 14.24-2.62 22.27-4.66l5.78 16.27c-8.03 2.05-15.4 3.59-22.27 4.66l-5.78-16.27" class="cls-3"/><path d="M646.92 116.47c2.33-.03 4.71-.13 7.15-.3 4.19-.29 8.57-.8 13.17-1.51l5.78 16.27c-4.61.72-8.98 1.22-13.17 1.51-2.44.17-4.83.27-7.15.3l-5.78-16.27" class="cls-6"/><path d="M625.54 114.43c4.8 1.08 9.98 1.74 15.45 1.96 1.94.08 3.92.11 5.94.08l5.78 16.27c-2.02.03-4 0-5.94-.08-5.47-.22-10.65-.89-15.45-1.96l-5.78-16.27" class="cls-3"/><path d="M607.9 107.61c4.96 3 10.92 5.31 17.64 6.82l5.78 16.27c-6.71-1.51-12.68-3.81-17.64-6.82l-5.78-16.27" class="cls-6"/><path d="M596.13 96.39c.61.96 1.27 1.9 1.99 2.81 2.54 3.21 5.84 6.02 9.77 8.4l5.78 16.27c-3.93-2.38-7.23-5.2-9.77-8.4-.72-.91-1.39-1.85-1.99-2.81l-5.78-16.27" class="cls-3"/><path d="M598.21 104.92c.96 2.7 2.15 5.3 3.7 7.74l-5.78-16.27c-1.54-2.44-2.74-5.05-3.7-7.74l5.78 16.27" class="cls-6"/><path d="M844.71 30.24c5.31-4.58 10.44-9.3 15.37-14.14L854.36.01c-4.93 4.84-10.06 9.56-15.37 14.14l5.72 16.1" class="cls-3"/><path d="M828.19 43.59c5.68-4.31 11.19-8.76 16.52-13.36l-5.72-16.1c-5.33 4.59-10.84 9.05-16.52 13.36 1.71 4.83 4 11.27 5.72 16.1" class="cls-6"/><path d="M810.66 56.08c6-4.01 11.85-8.18 17.53-12.49-1.71-4.83-4-11.27-5.72-16.1-5.68 4.31-11.53 8.48-17.53 12.49l5.72 16.1" class="cls-3"/><path d="M792.24 67.64c6.28-3.69 12.43-7.55 18.43-11.56l-5.72-16.09c-6 4.01-12.14 7.87-18.43 11.56l5.72 16.09" class="cls-6"/><path d="M773.01 78.23c6.53-3.36 12.95-6.89 19.23-10.59l-5.72-16.09c-6.28 3.69-12.7 7.23-19.23 10.59l5.72 16.1" class="cls-3"/><path d="M753.08 87.79c6.75-3.01 13.39-6.2 19.92-9.56l-5.72-16.1c-6.53 3.36-13.18 6.55-19.92 9.56l5.72 16.1" class="cls-6"/><path d="M732.56 96.28c6.93-2.65 13.78-5.48 20.52-8.49l-5.72-16.1c-6.75 3.01-13.59 5.85-20.52 8.49 1.71 4.83 4 11.27 5.72 16.1" class="cls-3"/><path d="M711.54 103.65c7.08-2.26 14.09-4.72 21.02-7.37-1.71-4.83-4-11.27-5.72-16.1-6.93 2.65-13.94 5.1-21.02 7.37 1.71 4.83 4 11.27 5.72 16.1" class="cls-6"/><path d="M689.51 109.99c1.7-.43 3.44-.89 5.2-1.37 5.64-1.54 11.25-3.2 16.83-4.98-1.71-4.83-4-11.27-5.72-16.1-5.57 1.78-11.18 3.44-16.83 4.98-1.76.48-3.5.94-5.2 1.37l5.72 16.1" class="cls-3"/><path d="M667.25 114.66c6.87-1.07 14.24-2.62 22.27-4.66l-5.72-16.1c-8.03 2.05-15.4 3.59-22.27 4.66l5.72 16.1" class="cls-6"/><path d="M646.92 116.47c2.33-.03 4.71-.13 7.15-.3 4.19-.29 8.57-.8 13.17-1.51l-5.72-16.1c-4.61.72-8.98 1.22-13.17 1.51-2.44.17-4.83.27-7.15.3l5.72 16.1" class="cls-3"/><path d="M625.54 114.43c4.8 1.08 9.98 1.74 15.45 1.96 1.94.08 3.92.11 5.94.08l-5.72-16.1c-2.02.03-4 0-5.94-.08-5.47-.22-10.65-.89-15.45-1.96l5.72 16.1" class="cls-6"/><path d="M607.9 107.61c4.96 3 10.92 5.31 17.64 6.82l-5.72-16.1c-6.71-1.51-12.68-3.81-17.64-6.82 1.71 4.83 2.48 12.12 5.72 16.1" class="cls-3"/><path d="M596.13 96.39c.61.96 1.27 1.9 1.99 2.81 2.54 3.21 5.84 6.02 9.77 8.4l-5.72-16.1c-3.93-2.38-7.23-5.2-9.77-8.4-.72-.91-1.39-1.85-1.99-2.81l5.72 16.1" class="cls-6"/><path d="M592.44 88.65c.96 2.7 2.15 5.3 3.7 7.74l-5.72-16.1c-1.54-2.44-2.74-5.05-3.7-7.74l5.72 16.09" class="cls-3"/></g><g class="cls-1"><path d="M642.3 227.5c.56 2.52 1.22 5 2.08 7.41l-5.71-16.09c-.85-2.41-1.52-4.89-2.08-7.41l5.71 16.09" class="cls-6"/><path d="M639.5 211.31c.34 1.92.65 3.86.94 5.76.55 3.47 1.1 6.98 1.86 10.43l-5.71-16.09c-.76-3.44-1.31-6.96-1.86-10.43-.29-1.9-.6-3.84-.94-5.76 1.71 4.83 4.41 11.14 5.71 16.09" class="cls-3"/><path d="M636.73 200.28c.96 2.72 1.76 5.67 2.38 8.87.14.72.27 1.44.4 2.17-1.71-4.83-4-11.26-5.71-16.09-.13-.73-.26-1.45-.4-2.17-.62-3.2-1.41-6.15-2.38-8.87l5.71 16.09" class="cls-6"/><path d="M636.59 211.41c.56 2.52 1.22 5 2.08 7.41l-5.78-16.27c-.85-2.41-1.52-4.89-2.08-7.41l5.78 16.27" class="cls-3"/><path d="M628.01 178.95c.34 1.92.65 3.86.94 5.76.55 3.47 1.1 6.98 1.86 10.43l5.78 16.27c-.76-3.44-1.31-6.96-1.86-10.43-.29-1.9-.6-3.84-.94-5.76l-5.78-16.27" class="cls-6"/><path d="M631.01 184.19c.96 2.72 1.76 5.67 2.38 8.87.14.72.27 1.44.4 2.17l-5.78-16.27c-.13-.73-.26-1.45-.4-2.17-.62-3.2-1.41-6.15-2.38-8.87l5.78 16.27" class="cls-3"/><path d="M630.81 195.13c.56 2.52 1.22 5 2.08 7.41l-5.78-16.27c-.85-2.41-1.52-4.89-2.08-7.41l5.78 16.27" class="cls-6"/><path d="M622.23 162.68c.34 1.92.65 3.86.94 5.76.55 3.47 1.1 6.98 1.86 10.43l5.78 16.27c-.76-3.44-1.31-6.96-1.86-10.43-.29-1.9-.6-3.84-.94-5.76l-5.78-16.27" class="cls-3"/><path d="M625.23 167.91c.96 2.72 1.76 5.67 2.38 8.87.14.72.27 1.44.4 2.17l-5.78-16.27c-.13-.73-.26-1.45-.4-2.17-.62-3.2-1.41-6.15-2.38-8.87l5.78 16.27" class="cls-6"/><path d="M625.03 178.86c.56 2.52 1.22 5 2.08 7.41L621.33 170c-.85-2.41-1.52-4.89-2.08-7.41l5.78 16.27" class="cls-3"/><path d="M616.45 146.41c.34 1.92.65 3.86.94 5.76.55 3.47 1.1 6.98 1.86 10.43l5.78 16.27c-.76-3.44-1.31-6.96-1.86-10.43-.29-1.9-.6-3.84-.94-5.76l-5.78-16.27" class="cls-6"/><path d="M619.45 151.64c.96 2.72 1.76 5.67 2.38 8.87.14.72.27 1.44.4 2.17l-5.78-16.27c-.13-.73-.26-1.45-.4-2.17-.62-3.2-1.41-6.15-2.38-8.87l5.78 16.27" class="cls-3"/><path d="M619.25 162.59c.56 2.52 1.22 5 2.08 7.41l-5.78-16.27c-.56-1.66-1.26-3.74-2.08-7.41l5.78 16.27" class="cls-6"/><path d="M610.68 130.14c.34 1.92.65 3.86.94 5.76.55 3.47 1.1 6.98 1.86 10.43l5.78 16.27c-.76-3.44-1.31-6.96-1.86-10.43-.29-1.9-.6-3.84-.94-5.76l-5.78-16.27" class="cls-3"/><path d="M613.67 135.37c.96 2.72 1.76 5.67 2.38 8.87.14.72.27 1.44.4 2.17l-5.78-16.27c-.13-.73-.26-1.45-.4-2.17-.62-3.2-1.41-6.15-2.38-8.87l5.78 16.27" class="cls-6"/><path d="M613.47 146.32c.43 1.86 1.01 4.41 2.08 7.41l-5.78-16.27c-.85-2.41-1.52-4.89-2.08-7.41l5.78 16.27" class="cls-3"/><path d="M604.9 113.86c.34 1.92.65 3.86.94 5.76.55 3.47 1.1 6.98 1.86 10.43l5.78 16.27c-.76-3.44-1.31-6.96-1.86-10.43-.29-1.9-.6-3.84-.94-5.76l-5.78-16.27" class="cls-6"/><path d="M607.9 119.1c.96 2.72 1.76 5.67 2.38 8.87.14.72.27 1.44.4 2.17l-5.78-16.27c-.13-.73-.26-1.45-.4-2.17-.62-3.2-1.41-6.15-2.38-8.87l5.78 16.27" class="cls-3"/><path d="M607.7 130.05c.56 2.52 1.22 5 2.08 7.41L604 121.19c-.85-2.41-1.52-4.89-2.08-7.41l5.78 16.27" class="cls-6"/><path d="M599.12 97.6c.34 1.92.65 3.86.94 5.76.55 3.47 1.1 6.98 1.86 10.42l5.78 16.27c-.76-3.44-1.31-6.96-1.86-10.43-.29-1.9-.6-3.84-.94-5.76l-5.78-16.27" class="cls-3"/><path d="M602.12 102.83c.96 2.72 1.76 5.67 2.38 8.87.14.72.27 1.44.4 2.17l-5.78-16.27c-.13-.73-.26-1.45-.4-2.17-.62-3.2-1.41-6.15-2.38-8.87l5.78 16.27" class="cls-6"/><path d="M601.92 113.78c.56 2.52 1.22 5 2.08 7.41l-5.78-16.27c-.85-2.41-1.52-4.89-2.08-7.41l5.78 16.27" class="cls-3"/><path d="M593.34 81.32c.34 1.92.65 3.86.94 5.76.55 3.47 1.1 6.98 1.86 10.42l5.78 16.27c-.76-3.44-1.31-6.96-1.86-10.42-.29-1.9-.6-3.84-.94-5.76l-5.78-16.27" class="cls-6"/><path d="M596.34 86.56c.96 2.72 1.76 5.67 2.38 8.87.14.72.27 1.44.4 2.17l-5.78-16.27c-.93-5.19-1.69-7.88-2.78-11.04l5.78 16.27" class="cls-3"/><path d="M596.14 97.51c.56 2.52 1.22 5 2.08 7.41l-5.78-16.27c-.85-2.41-1.52-4.89-2.08-7.41l5.78 16.27" class="cls-6"/><path d="M587.56 65.05c.34 1.92.65 3.86.94 5.76.55 3.47 1.1 6.98 1.86 10.43l5.78 16.27c-.76-3.44-1.31-6.96-1.86-10.43-.29-1.9-.6-3.84-.94-5.76l-5.78-16.27" class="cls-3"/><path d="M590.56 70.28c1.06 3.19 1.83 5.69 2.78 11.04l-5.78-16.27c-.13-.73-.26-1.45-.4-2.17-.62-3.2-1.41-6.15-2.38-8.87l5.78 16.27" class="cls-6"/><path d="M590.36 81.24c.56 2.52 1.22 5 2.08 7.41l-5.72-16.09c-.85-2.41-1.52-4.89-2.08-7.41l5.72 16.1" class="cls-3"/><path d="M587.56 65.05c.34 1.92.65 3.86.94 5.76.55 3.47 1.1 6.98 1.86 10.43l-5.72-16.1c-.76-3.44-1.31-6.96-1.86-10.43-.29-1.9-.6-3.84-.94-5.76l5.72 16.1" class="cls-6"/><path d="M584.78 54.02c.96 2.72 1.76 5.67 2.38 8.87.14.72.27 1.44.4 2.17l-5.72-16.1c-.13-.73-.26-1.45-.4-2.17-.62-3.2-1.41-6.15-2.38-8.87l5.72 16.1" class="cls-3"/></g><path stroke-width="0" d="M644.38 234.91c-.85-2.41-1.52-4.89-2.08-7.41-.76-3.44-1.31-6.96-1.86-10.43-.29-1.9-.6-3.84-.94-5.76-.13-.73-.26-1.45-.4-2.17-.62-3.2-1.41-6.15-2.38-8.87l-5.71-16.09-5.78-16.27-5.78-16.27-5.78-16.27-5.78-16.27-5.78-16.27-5.78-16.27-5.78-16.27c.86 2.51 1.52 4.73 2.22 8.14-.72-3.48-1.38-5.59-2.22-8.14l-5.78-16.27-5.72-16.1c.96 2.72 1.76 5.67 2.38 8.87.14.72.27 1.44.4 2.17.34 1.92.65 3.86.94 5.76.55 3.47 1.1 6.98 1.86 10.42.56 2.52 1.22 5 2.08 7.41l5.72 16.09 5.78 16.27 5.78 16.27 5.78 16.27 5.78 16.27c-.46-1.3-.83-2.51-1.13-3.62.42 1.51.8 2.64 1.13 3.62l5.78 16.27 5.78 16.27 5.78 16.27 5.78 16.27 5.71 16.09Zm-51.52-156.1c-.01-.06-.02-.13-.04-.19.01.06.02.12.04.19Zm3.27 18.69c-.19-.86-.37-1.73-.53-2.59.17.87.34 1.73.53 2.59Zm11.56 32.54c-.19-.86-.37-1.73-.53-2.59.17.87.34 1.73.53 2.59Zm6.55 19.42c.02.06.03.13.05.19-.02-.06-.03-.13-.05-.19Zm16.57 45.66c-.19-.86-.37-1.73-.53-2.59.17.87.34 1.73.53 2.59Z" opacity=".5"/><g class="cls-1"><path d="M633.77 193.66c1.12 2.02 2.1 4.23 2.95 6.62l-5.71-16.09c-.85-2.39-1.83-4.6-2.95-6.62l5.71 16.09" class="cls-6"/><path d="M623.1 182.19c4.36 2.66 7.92 6.49 10.68 11.47l-5.71-16.09c-2.76-4.98-6.32-8.81-10.68-11.47 1.71 4.83 2.49 12.11 5.71 16.09" class="cls-3"/><path d="M605.67 177.63c3.87.09 7.64.6 11.12 1.7 2.26.72 4.36 1.67 6.31 2.86-1.71-4.83-4-11.26-5.71-16.09-1.94-1.19-4.05-2.14-6.31-2.86-3.48-1.1-7.25-1.61-11.12-1.7l5.71 16.09" class="cls-6"/><path d="M583.54 180.5c5.15-1.25 10.82-2.34 16.46-2.73 1.9-.13 3.8-.19 5.67-.14l-5.71-16.09c-1.87-.04-3.77.01-5.67.14-5.64.39-11.31 1.48-16.46 2.73l5.71 16.09" class="cls-3"/><path d="M562.88 186.65c4.36-1.47 8.75-2.85 13.18-4.14 2.31-.67 4.83-1.36 7.49-2.01l-5.71-16.09c-2.66.65-5.18 1.34-7.49 2.01-4.43 1.28-8.82 2.66-13.18 4.14l5.71 16.09" class="cls-6"/><path d="M542.11 194.41c6.84-2.79 13.76-5.39 20.77-7.76l-5.71-16.09c-7.01 2.37-13.93 4.97-20.77 7.76l5.71 16.09" class="cls-3"/><path d="M521.83 203.32c6.68-3.13 13.44-6.11 20.27-8.91l-5.71-16.09c-6.84 2.79-13.59 5.77-20.27 8.91l5.71 16.09" class="cls-6"/><path d="M501.99 213.12c6.55-3.39 13.16-6.67 19.85-9.81l-5.71-16.09c-6.68 3.13-13.3 6.42-19.85 9.81l5.71 16.09" class="cls-3"/><path d="M482.52 223.57c6.43-3.56 12.92-7.06 19.47-10.45l-5.71-16.09c-6.55 3.39-13.04 6.89-19.47 10.45l5.71 16.09" class="cls-6"/><path d="M463.35 234.42c6.34-3.65 12.73-7.28 19.16-10.85l-5.71-16.09c-6.44 3.56-12.82 7.19-19.16 10.85l5.71 16.09" class="cls-3"/><path d="M444.45 245.41c6.27-3.66 12.57-7.34 18.91-10.99l-5.71-16.09c-6.34 3.65-12.64 7.33-18.91 10.99l5.71 16.09" class="cls-6"/><path d="M628.06 177.56c1.12 2.02 2.1 4.23 2.95 6.62l-5.78-16.27c-.85-2.39-1.83-4.6-2.95-6.62l5.78 16.27" class="cls-3"/><path d="M611.6 149.82c4.36 2.66 7.92 6.49 10.68 11.47l5.78 16.27c-2.76-4.98-6.32-8.81-10.68-11.47l-5.78-16.27" class="cls-6"/><path d="M594.18 145.26c3.87.09 7.64.6 11.12 1.7 2.26.72 4.36 1.67 6.31 2.86l5.78 16.27c-1.94-1.19-4.05-2.14-6.31-2.86-3.48-1.1-7.25-1.61-11.12-1.7l-5.78-16.27" class="cls-3"/><path d="M572.05 148.14c5.15-1.25 10.82-2.34 16.46-2.73 1.9-.13 3.8-.19 5.67-.14l5.78 16.27c-1.87-.04-3.77.01-5.67.14-5.64.39-11.31 1.48-16.46 2.73l-5.78-16.27" class="cls-6"/><path d="M551.38 154.28c4.36-1.47 8.75-2.85 13.18-4.14 2.31-.67 4.83-1.36 7.49-2.01l5.78 16.27c-2.66.65-5.18 1.34-7.49 2.01-4.43 1.28-8.82 2.66-13.18 4.14l-5.78-16.27" class="cls-3"/><path d="M530.61 162.05c6.84-2.79 13.76-5.39 20.77-7.76l5.78 16.27c-7.01 2.37-13.93 4.97-20.77 7.76l-5.78-16.27" class="cls-6"/><path d="M510.34 170.95c6.68-3.13 13.44-6.11 20.27-8.91l5.78 16.27c-6.84 2.79-13.59 5.77-20.27 8.91l-5.78-16.27" class="cls-3"/><path d="M490.49 180.76c6.55-3.39 13.16-6.67 19.85-9.81l5.78 16.27c-6.68 3.13-13.3 6.42-19.85 9.81l-5.78-16.27" class="cls-6"/><path d="M471.02 191.21c6.43-3.56 12.92-7.06 19.47-10.45l5.78 16.27c-6.55 3.39-13.04 6.89-19.47 10.45l-5.78-16.27" class="cls-3"/><path d="M451.86 202.05c6.34-3.65 12.73-7.28 19.16-10.85l5.78 16.27c-6.44 3.56-12.82 7.19-19.16 10.85l-5.78-16.27" class="cls-6"/><path d="M432.95 213.04c6.27-3.66 12.57-7.34 18.91-10.99l5.78 16.27c-6.34 3.65-12.64 7.33-18.91 10.99l-5.78-16.27" class="cls-3"/><path d="M622.28 161.29c1.12 2.02 2.1 4.23 2.95 6.62l-5.78-16.27c-.85-2.39-1.83-4.6-2.95-6.62l5.78 16.27" class="cls-6"/><path d="M605.83 133.55c4.36 2.66 7.92 6.49 10.68 11.47l5.78 16.27c-2.76-4.98-6.32-8.81-10.68-11.47l-5.78-16.27" class="cls-3"/><path d="M588.4 128.99c3.87.09 7.64.6 11.12 1.7 2.26.72 4.36 1.67 6.31 2.86l5.78 16.27c-1.94-1.19-4.05-2.14-6.31-2.86-3.48-1.1-7.25-1.61-11.12-1.7l-5.78-16.27" class="cls-6"/><path d="M566.27 131.87c5.15-1.25 10.82-2.34 16.46-2.73 1.9-.13 3.8-.19 5.67-.14l5.78 16.27c-1.87-.04-3.77.01-5.67.14-5.64.39-11.31 1.48-16.46 2.73l-5.78-16.27" class="cls-3"/><path d="M545.61 138.01c4.36-1.47 8.75-2.85 13.18-4.14 2.31-.67 4.83-1.36 7.49-2.01l5.78 16.27c-2.66.65-5.18 1.34-7.49 2.01-4.43 1.28-8.82 2.66-13.18 4.14l-5.78-16.27" class="cls-6"/><path d="M524.84 145.78c6.84-2.79 13.76-5.39 20.77-7.76l5.78 16.27c-7.01 2.37-13.93 4.97-20.77 7.76l-5.78-16.27" class="cls-3"/><path d="M504.56 154.68c6.68-3.13 13.44-6.11 20.27-8.91l5.78 16.27c-6.84 2.79-13.59 5.77-20.27 8.91l-5.78-16.27" class="cls-6"/><path d="M484.72 164.49c6.55-3.39 13.16-6.67 19.85-9.81l5.78 16.27c-6.68 3.13-13.3 6.42-19.85 9.81l-5.78-16.27" class="cls-3"/><path d="M465.25 174.94c6.43-3.56 12.92-7.06 19.47-10.45l5.78 16.27c-6.55 3.39-13.04 6.89-19.47 10.45l-5.78-16.27" class="cls-6"/><path d="M446.08 185.78c6.34-3.65 12.73-7.28 19.16-10.85l5.78 16.27c-6.44 3.56-12.82 7.19-19.16 10.85l-5.78-16.27" class="cls-3"/><path d="M427.18 196.77c6.27-3.66 12.57-7.34 18.91-10.99l5.78 16.27c-6.34 3.65-12.64 7.33-18.91 10.99l-5.78-16.27" class="cls-6"/><path d="M616.5 145.02c1.12 2.02 2.1 4.23 2.95 6.62l-5.78-16.27c-.85-2.39-1.83-4.6-2.95-6.62l5.78 16.27" class="cls-3"/><path d="M600.05 117.28c4.36 2.66 7.92 6.49 10.68 11.47l5.78 16.27c-2.76-4.98-6.32-8.81-10.68-11.47l-5.78-16.27" class="cls-6"/><path d="M582.62 112.72c3.87.09 7.64.6 11.12 1.7 2.26.72 4.36 1.67 6.31 2.86l5.78 16.27c-1.94-1.19-4.05-2.14-6.31-2.86-3.48-1.1-7.25-1.61-11.12-1.7l-5.78-16.27" class="cls-3"/><path d="M560.49 115.59c5.15-1.25 10.82-2.34 16.46-2.73 1.9-.13 3.8-.19 5.67-.14l5.78 16.27c-1.87-.04-3.77.01-5.67.14-5.64.39-11.31 1.48-16.46 2.73l-5.78-16.27" class="cls-6"/><path d="M539.83 121.74c4.36-1.47 8.75-2.85 13.18-4.14 2.31-.67 4.83-1.36 7.49-2.01l5.78 16.27c-2.66.65-5.18 1.34-7.49 2.01-4.43 1.28-8.82 2.66-13.18 4.14l-5.78-16.27" class="cls-3"/><path d="M519.06 129.5c6.84-2.79 13.76-5.39 20.77-7.76l5.78 16.27c-7.01 2.37-13.93 4.97-20.77 7.76l-5.78-16.27" class="cls-6"/><path d="M498.78 138.41c6.68-3.13 13.44-6.11 20.27-8.91l5.78 16.27c-6.84 2.79-13.59 5.77-20.27 8.91l-5.78-16.27" class="cls-3"/><path d="M478.94 148.22c6.55-3.39 13.16-6.67 19.85-9.81l5.78 16.27c-6.68 3.13-13.3 6.42-19.85 9.81l-5.78-16.27" class="cls-6"/><path d="M459.47 158.66c6.43-3.56 12.92-7.06 19.47-10.45l5.78 16.27c-6.55 3.39-13.04 6.89-19.47 10.45l-5.78-16.27" class="cls-3"/><path d="M440.3 169.51c6.34-3.65 12.73-7.28 19.16-10.85l5.78 16.27c-6.44 3.56-12.82 7.19-19.16 10.85l-5.78-16.27" class="cls-6"/><path d="M421.4 180.5c6.27-3.66 12.57-7.34 18.91-10.99l5.78 16.27c-6.34 3.65-12.64 7.33-18.91 10.99l-5.78-16.27" class="cls-3"/><path d="M610.72 128.75c1.12 2.02 2.1 4.23 2.95 6.62l-5.78-16.27c-.85-2.39-1.83-4.6-2.95-6.62l5.78 16.27" class="cls-6"/><path d="M594.27 101.01c4.36 2.66 7.92 6.49 10.68 11.47l5.78 16.27c-2.76-4.98-6.32-8.81-10.68-11.47l-5.78-16.27" class="cls-3"/><path d="M576.84 96.45c3.87.09 7.64.6 11.12 1.7 2.26.72 4.36 1.67 6.31 2.86l5.78 16.27c-1.94-1.19-4.05-2.14-6.31-2.86-3.48-1.1-7.25-1.61-11.12-1.7l-5.78-16.27" class="cls-6"/><path d="M554.71 99.33c5.15-1.25 10.82-2.34 16.46-2.73 1.9-.13 3.8-.19 5.67-.14l5.78 16.27c-1.87-.04-3.77.01-5.67.14-5.64.39-11.31 1.48-16.46 2.73l-5.78-16.27" class="cls-3"/><path d="M534.05 105.47c4.36-1.47 8.75-2.85 13.18-4.14 2.31-.67 4.83-1.36 7.49-2.01l5.78 16.27c-2.66.65-5.18 1.34-7.49 2.01-4.43 1.28-8.82 2.66-13.18 4.14l-5.78-16.27" class="cls-6"/><path d="M513.28 113.23c6.84-2.79 13.76-5.39 20.77-7.76l5.78 16.27c-7.01 2.37-13.93 4.97-20.77 7.76l-5.78-16.27" class="cls-3"/><path d="M493.01 122.14c6.68-3.13 13.44-6.11 20.27-8.91l5.78 16.27c-6.84 2.79-13.59 5.77-20.27 8.91l-5.78-16.27" class="cls-6"/><path d="M473.16 131.95c6.55-3.39 13.16-6.67 19.85-9.81l5.78 16.27c-6.68 3.13-13.3 6.42-19.85 9.81l-5.78-16.27" class="cls-3"/><path d="M453.69 142.39c6.43-3.56 12.92-7.06 19.47-10.45l5.78 16.27c-6.55 3.39-13.04 6.89-19.47 10.45l-5.78-16.27" class="cls-6"/><path d="M434.52 153.24c6.34-3.65 12.73-7.28 19.16-10.85l5.78 16.27c-6.44 3.56-12.82 7.19-19.16 10.85l-5.78-16.27" class="cls-3"/><path d="M415.62 164.23c6.27-3.66 12.57-7.34 18.91-10.99l5.78 16.27c-6.34 3.65-12.64 7.33-18.91 10.99l-5.78-16.27" class="cls-6"/><path d="M604.95 112.48c1.12 2.02 2.1 4.23 2.95 6.62l-5.78-16.27c-.85-2.39-1.83-4.6-2.95-6.62l5.78 16.27" class="cls-3"/><path d="M588.49 84.74c4.36 2.66 7.92 6.49 10.68 11.47l5.78 16.27c-2.76-4.98-6.32-8.81-10.68-11.47l-5.78-16.27" class="cls-6"/><path d="M571.06 80.18c3.87.09 7.64.6 11.12 1.7 2.26.72 4.36 1.67 6.31 2.86l5.78 16.27c-1.94-1.19-4.05-2.14-6.31-2.86-3.48-1.1-7.25-1.61-11.12-1.7l-5.78-16.27" class="cls-3"/><path d="M548.94 83.05c5.15-1.25 10.82-2.34 16.46-2.73 1.9-.13 3.8-.19 5.67-.14l5.78 16.27c-1.87-.04-3.77.01-5.67.14-5.64.39-11.31 1.48-16.46 2.73l-5.78-16.27" class="cls-6"/><path d="M528.27 89.2c4.36-1.47 8.75-2.85 13.18-4.14 2.31-.67 4.83-1.36 7.49-2.01l5.78 16.27c-2.66.65-5.18 1.34-7.49 2.01-4.43 1.28-8.82 2.66-13.18 4.14l-5.78-16.27" class="cls-3"/><path d="M507.5 96.96c6.84-2.79 13.76-5.39 20.77-7.76l5.78 16.27c-7.01 2.37-13.93 4.97-20.77 7.76l-5.78-16.27" class="cls-6"/><path d="M487.23 105.87c6.68-3.13 13.44-6.11 20.27-8.91l5.78 16.27c-6.84 2.79-13.59 5.77-20.27 8.91l-5.78-16.27" class="cls-3"/><path d="M467.38 115.67c6.55-3.39 13.16-6.67 19.85-9.81l5.78 16.27c-6.68 3.13-13.3 6.42-19.85 9.81l-5.78-16.27" class="cls-6"/><path d="M447.91 126.12c6.43-3.56 12.92-7.06 19.47-10.45l5.78 16.27c-6.55 3.39-13.04 6.89-19.47 10.45l-5.78-16.27" class="cls-3"/><path d="M428.75 136.97c6.34-3.65 12.73-7.28 19.16-10.85l5.78 16.27c-6.44 3.56-12.82 7.19-19.16 10.85l-5.78-16.27" class="cls-6"/><path d="M409.84 147.96c6.27-3.66 12.57-7.34 18.91-10.99l5.78 16.27c-6.34 3.65-12.64 7.33-18.91 10.99l-5.78-16.27" class="cls-3"/><path d="M599.17 96.21c1.12 2.02 2.1 4.23 2.95 6.62l-5.78-16.27c-.85-2.39-1.83-4.6-2.95-6.62l5.78 16.27" class="cls-6"/><path d="M582.71 68.47c4.36 2.66 7.92 6.49 10.68 11.47l5.78 16.27c-2.76-4.98-6.32-8.81-10.68-11.47l-5.78-16.27" class="cls-3"/><path d="M565.29 63.91c3.87.09 7.64.6 11.12 1.7 2.26.72 4.36 1.67 6.31 2.86l5.78 16.27c-1.94-1.19-4.05-2.14-6.31-2.86-3.48-1.1-7.25-1.61-11.12-1.7l-5.78-16.27" class="cls-6"/><path d="M543.16 66.78c5.15-1.25 10.82-2.34 16.46-2.73 1.9-.13 3.8-.19 5.67-.14l5.78 16.27c-1.87-.04-3.77.01-5.67.14-5.64.39-11.31 1.48-16.46 2.73l-5.78-16.27" class="cls-3"/><path d="M522.49 72.93c4.36-1.47 8.75-2.85 13.18-4.14 2.31-.67 4.83-1.36 7.49-2.01l5.78 16.27c-2.66.65-5.18 1.34-7.49 2.01-4.43 1.28-8.82 2.66-13.18 4.14l-5.78-16.27" class="cls-6"/><path d="M501.72 80.69c6.84-2.79 13.76-5.39 20.77-7.76l5.78 16.27c-7.01 2.37-13.93 4.97-20.77 7.76l-5.78-16.27" class="cls-3"/><path d="M481.45 89.6c6.68-3.13 13.44-6.11 20.27-8.91l5.78 16.27c-6.84 2.79-13.59 5.77-20.27 8.91l-5.78-16.27" class="cls-6"/><path d="M461.6 99.4c6.55-3.39 13.16-6.67 19.85-9.81l5.78 16.27c-6.68 3.13-13.3 6.42-19.85 9.81L461.6 99.4" class="cls-3"/><path d="M442.13 109.85c6.43-3.56 12.92-7.06 19.47-10.45l5.78 16.27c-6.55 3.39-13.04 6.89-19.47 10.45l-5.78-16.27" class="cls-6"/><path d="M422.97 120.7c6.34-3.65 12.73-7.28 19.16-10.85l5.78 16.27c-6.44 3.56-12.82 7.19-19.16 10.85l-5.78-16.27" class="cls-3"/><path d="M404.06 131.69c6.27-3.66 12.57-7.34 18.91-10.99l5.78 16.27c-6.34 3.65-12.64 7.33-18.91 10.99l-5.78-16.27" class="cls-6"/><path d="M593.39 79.94c1.12 2.02 2.1 4.23 2.95 6.62l-5.78-16.27c-.97-2.55-1.45-3.83-2.95-6.62l5.78 16.27" class="cls-3"/><path d="M576.93 52.2c4.36 2.66 7.92 6.49 10.68 11.47l5.78 16.27c-2.76-4.98-6.32-8.81-10.68-11.47l-5.78-16.27" class="cls-6"/><path d="M559.51 47.63c3.87.09 7.64.6 11.12 1.7 2.26.72 4.36 1.67 6.31 2.86l5.78 16.27c-1.94-1.19-4.05-2.14-6.31-2.86-3.48-1.1-7.25-1.61-11.12-1.7l-5.78-16.27" class="cls-3"/><path d="M537.38 50.51c5.15-1.25 10.82-2.34 16.46-2.73 1.9-.13 3.8-.19 5.67-.14l5.78 16.27c-1.87-.04-3.77.01-5.67.14-5.64.39-11.31 1.48-16.46 2.73l-5.78-16.27" class="cls-6"/><path d="M516.71 56.66c4.36-1.47 8.75-2.85 13.18-4.14 2.31-.67 4.83-1.36 7.49-2.01l5.78 16.27c-2.66.65-5.18 1.34-7.49 2.01-4.43 1.28-8.82 2.66-13.18 4.14l-5.78-16.27" class="cls-3"/><path d="M495.94 64.42c6.84-2.79 13.76-5.39 20.77-7.76l5.78 16.27c-7.01 2.37-13.93 4.97-20.77 7.76l-5.78-16.27" class="cls-6"/><path d="M475.67 73.32c6.68-3.13 13.44-6.11 20.27-8.91l5.78 16.27c-6.84 2.79-13.59 5.77-20.27 8.91l-5.78-16.27" class="cls-3"/><path d="M455.82 83.13c6.55-3.39 13.16-6.67 19.85-9.81l5.78 16.27c-6.68 3.13-13.3 6.42-19.85 9.81l-5.78-16.27" class="cls-6"/><path d="M436.35 93.58c6.43-3.56 12.92-7.06 19.47-10.45l5.78 16.27c-6.55 3.39-13.04 6.89-19.47 10.45l-5.78-16.27" class="cls-3"/><path d="M417.19 104.43c6.34-3.65 12.73-7.28 19.16-10.85l5.78 16.27c-6.44 3.56-12.82 7.19-19.16 10.85l-5.78-16.27" class="cls-6"/><path d="M398.28 115.42c6.27-3.66 12.57-7.34 18.91-10.99l5.78 16.27c-6.34 3.65-12.64 7.33-18.91 10.99l-5.78-16.27" class="cls-3"/><path d="M587.61 63.66c1.17 2.26 1.76 3.39 2.95 6.62l-5.78-16.27c-.85-2.39-1.83-4.6-2.95-6.62l5.78 16.27" class="cls-6"/><path d="M571.16 35.93c4.36 2.66 7.92 6.49 10.68 11.47l5.78 16.27c-2.76-4.98-6.32-8.81-10.68-11.47l-5.78-16.27" class="cls-3"/><path d="M553.73 31.37c3.87.09 7.64.6 11.12 1.7 2.26.72 4.36 1.67 6.31 2.86l5.78 16.27c-1.94-1.19-4.05-2.14-6.31-2.86-3.48-1.1-7.25-1.61-11.12-1.7l-5.78-16.27" class="cls-6"/><path d="M531.6 34.24c5.15-1.25 10.82-2.34 16.46-2.73 1.9-.13 3.8-.19 5.67-.14l5.78 16.27c-1.87-.04-3.77.01-5.67.14-5.64.39-11.31 1.48-16.46 2.73l-5.78-16.27" class="cls-3"/><path d="M510.93 40.39c4.36-1.47 8.75-2.85 13.18-4.14 2.31-.67 4.83-1.36 7.49-2.01l5.78 16.27c-2.66.65-5.18 1.34-7.49 2.01-4.43 1.28-8.82 2.66-13.18 4.14l-5.78-16.27" class="cls-6"/><path d="M490.16 48.15c6.84-2.79 13.76-5.39 20.77-7.76l5.78 16.27c-7.01 2.37-13.93 4.97-20.77 7.76l-5.78-16.27" class="cls-3"/><path d="M469.89 57.06c6.68-3.13 13.44-6.11 20.27-8.91l5.78 16.27c-6.84 2.79-13.59 5.77-20.27 8.91l-5.78-16.27" class="cls-6"/><path d="M450.04 66.86c6.55-3.39 13.16-6.67 19.85-9.81l5.78 16.27c-6.68 3.13-13.3 6.42-19.85 9.81l-5.78-16.27" class="cls-3"/><path d="M430.57 77.31c6.43-3.56 12.92-7.06 19.47-10.45l5.78 16.27c-6.55 3.39-13.04 6.89-19.47 10.45l-5.78-16.27" class="cls-6"/><path d="M411.41 88.16c6.34-3.65 12.73-7.28 19.16-10.85l5.78 16.27c-6.44 3.56-12.82 7.19-19.16 10.85l-5.78-16.27" class="cls-3"/><path d="M392.5 99.15c6.27-3.66 12.57-7.34 18.91-10.99l5.78 16.27c-6.34 3.65-12.64 7.33-18.91 10.99l-5.78-16.27" class="cls-6"/><path d="M581.83 47.4c1.12 2.02 2.1 4.23 2.95 6.62l-5.72-16.1c-.85-2.39-1.83-4.6-2.95-6.62 1.71 4.83 3.61 11.42 5.72 16.1" class="cls-3"/><path d="M571.16 35.93c4.36 2.66 7.92 6.49 10.68 11.47-1.71-4.83-4-11.27-5.72-16.09-2.76-4.98-6.32-8.81-10.68-11.47l5.72 16.1" class="cls-6"/><path d="M553.73 31.37c3.87.09 7.64.6 11.12 1.7 2.26.72 4.36 1.67 6.31 2.86l-5.72-16.1c-1.94-1.19-4.05-2.14-6.31-2.86-3.48-1.1-7.25-1.61-11.12-1.7l5.72 16.1" class="cls-3"/><path d="M531.6 34.24c5.15-1.25 10.82-2.34 16.46-2.73 1.9-.13 3.8-.19 5.67-.14l-5.72-16.1c-1.87-.04-3.77.01-5.67.14-5.64.39-11.31 1.48-16.46 2.73l5.72 16.1" class="cls-6"/><path d="M510.93 40.39c4.36-1.47 8.75-2.85 13.18-4.14 2.31-.67 4.83-1.36 7.49-2.01l-5.72-16.1c-2.66.65-5.18 1.34-7.49 2.01-4.43 1.28-8.82 2.66-13.18 4.14l5.72 16.09" class="cls-3"/><path d="M490.16 48.15c6.84-2.79 13.76-5.39 20.77-7.76l-5.72-16.09c-7.01 2.37-13.93 4.97-20.77 7.76l5.72 16.1" class="cls-6"/><path d="M469.89 57.06c6.68-3.13 13.44-6.11 20.27-8.91l-5.72-16.09c-6.84 2.79-13.59 5.77-20.27 8.91l5.72 16.09" class="cls-3"/><path d="M450.04 66.86c6.55-3.39 13.16-6.67 19.85-9.81l-5.72-16.09c-6.68 3.13-13.3 6.42-19.85 9.81l5.72 16.1" class="cls-6"/><path d="M430.57 77.31c6.43-3.56 12.92-7.06 19.47-10.45l-5.72-16.1c-6.55 3.39-13.04 6.89-19.47 10.45l5.72 16.1" class="cls-3"/><path d="M411.41 88.16c6.34-3.65 12.73-7.28 19.16-10.85l-5.72-16.1c-6.44 3.56-12.82 7.19-19.16 10.85l5.72 16.1" class="cls-6"/><path d="M392.5 99.15c6.27-3.66 12.57-7.34 18.91-10.99l-5.72-16.1c-6.34 3.65-12.64 7.33-18.91 10.99l5.72 16.1M425.61 256.37c6.13-3.54 12.2-7.09 18.22-10.6.2-.12.41-.24.61-.36l-5.71-16.09c-.2.12-.41.24-.61.36-6.02 3.52-12.1 7.07-18.22 10.6l5.71 16.09" class="cls-3"/><path d="M406.46 267.25c6.43-3.58 12.82-7.22 19.15-10.88l-5.71-16.09c-6.33 3.66-12.72 7.3-19.15 10.88l5.71 16.09" class="cls-6"/><path d="M387.01 277.75c6.53-3.41 13.01-6.92 19.45-10.5l-5.71-16.09c-6.44 3.58-12.92 7.1-19.45 10.5l5.71 16.09" class="cls-3"/><path d="M366.55 287.91c2.48-1.14 5.01-2.35 7.63-3.64 4.29-2.11 8.57-4.29 12.83-6.51l-5.71-16.09c-4.26 2.22-8.54 4.4-12.83 6.51-2.62 1.29-5.15 2.51-7.63 3.64l5.71 16.09" class="cls-6"/><path d="M346.07 295.55c6.7-1.76 13.35-4.37 20.49-7.65l-5.71-16.09c-7.14 3.28-13.79 5.89-20.49 7.65 1.71 4.83 4 11.26 5.71 16.09" class="cls-3"/><path d="M324.57 297.68c2.75.26 5.67.3 8.68.08 2.07-.14 4.19-.4 6.33-.78 2.18-.38 4.34-.86 6.49-1.43-1.71-4.83-4-11.26-5.71-16.09-2.15.57-4.31 1.04-6.49 1.43-2.14.38-4.26.64-6.33.78-3.01.21-5.92.18-8.68-.08l5.71 16.09" class="cls-6"/><path d="M307.48 291.17c3.92 3.59 9.97 5.82 17.09 6.51l-5.71-16.09c-7.12-.68-13.17-2.91-17.09-6.51l5.71 16.09" class="cls-3"/><path d="M302.64 283.95c.94 2.64 2.5 5.08 4.84 7.22l-5.71-16.09c-2.34-2.14-3.9-4.58-4.84-7.22l5.71 16.09M414.12 224.01c6.13-3.54 12.2-7.09 18.22-10.6.2-.12.41-.24.61-.36l5.78 16.27c-.2.12-.41.24-.61.36-6.02 3.52-12.1 7.07-18.22 10.6l-5.78-16.27" class="cls-6"/><path d="M394.97 234.88c6.43-3.58 12.82-7.22 19.15-10.88l5.78 16.27c-6.33 3.66-12.72 7.3-19.15 10.88l-5.78-16.27" class="cls-3"/><path d="M375.52 245.39c6.53-3.41 13.01-6.92 19.45-10.5l5.78 16.27c-6.44 3.58-12.92 7.1-19.45 10.5l-5.78-16.27" class="cls-6"/><path d="M355.06 255.54c2.48-1.14 5.01-2.35 7.63-3.64 4.29-2.11 8.57-4.29 12.83-6.51l5.78 16.27c-4.26 2.22-8.54 4.4-12.83 6.51-2.62 1.29-5.15 2.51-7.63 3.64l-5.78-16.27" class="cls-3"/><path d="M334.57 263.19c6.7-1.76 13.35-4.37 20.49-7.65l5.78 16.27c-7.14 3.28-13.79 5.89-20.49 7.65l-5.78-16.27" class="cls-6"/><path d="M313.08 265.31c2.75.26 5.67.3 8.68.08 2.07-.14 4.19-.4 6.33-.78 2.18-.38 4.34-.86 6.49-1.43l5.78 16.27c-2.15.57-4.31 1.04-6.49 1.43-2.14.38-4.26.64-6.33.78-3.01.21-5.92.18-8.68-.08l-5.78-16.27" class="cls-3"/><path d="M295.99 258.81c3.92 3.59 9.97 5.82 17.09 6.51l5.78 16.27c-7.12-.68-13.17-2.91-17.09-6.51l-5.78-16.27" class="cls-6"/><path d="M296.93 267.86c.94 2.64 2.5 5.08 4.84 7.22l-5.78-16.27c-2.34-2.14-3.9-4.58-4.84-7.22l5.78 16.27M408.34 207.74c6.13-3.54 12.2-7.09 18.22-10.6.2-.12.41-.24.61-.36l5.78 16.27c-.2.12-.41.24-.61.36-6.02 3.52-12.1 7.07-18.22 10.6l-5.78-16.27" class="cls-3"/><path d="M389.19 218.61c6.43-3.58 12.82-7.22 19.15-10.88l5.78 16.27c-6.33 3.66-12.72 7.3-19.15 10.88l-5.78-16.27" class="cls-6"/><path d="M369.74 229.12c6.53-3.41 13.01-6.92 19.45-10.5l5.78 16.27c-6.44 3.58-12.92 7.1-19.45 10.5l-5.78-16.27" class="cls-3"/><path d="M349.28 239.27c2.48-1.14 5.01-2.35 7.63-3.64 4.29-2.11 8.57-4.29 12.83-6.51l5.78 16.27c-4.26 2.22-8.54 4.4-12.83 6.51-2.62 1.29-5.15 2.51-7.63 3.64l-5.78-16.27" class="cls-6"/><path d="M328.8 246.92c6.7-1.76 13.35-4.37 20.49-7.65l5.78 16.27c-7.14 3.28-13.79 5.89-20.49 7.65l-5.78-16.27" class="cls-3"/><path d="M307.3 249.05c2.75.26 5.67.3 8.68.08 2.07-.14 4.19-.4 6.33-.78 2.18-.38 4.34-.86 6.49-1.43l5.78 16.27c-2.15.57-4.31 1.04-6.49 1.43-2.14.38-4.26.64-6.33.78-3.01.21-5.92.18-8.68-.08l-5.78-16.27" class="cls-6"/><path d="M290.21 242.54c3.92 3.59 9.97 5.82 17.09 6.51l5.78 16.27c-7.12-.68-13.17-2.91-17.09-6.51l-5.78-16.27" class="cls-3"/><path d="M291.15 251.59c.94 2.64 2.5 5.08 4.84 7.22l-5.78-16.27c-2.34-2.14-3.9-4.58-4.84-7.22l5.78 16.27M402.56 191.46c6.13-3.54 12.2-7.09 18.22-10.6.2-.12.41-.24.61-.36l5.78 16.27c-.2.12-.41.24-.61.36-6.02 3.52-12.1 7.07-18.22 10.6l-5.78-16.27" class="cls-6"/><path d="M383.41 202.34c6.43-3.58 12.82-7.22 19.15-10.88l5.78 16.27c-6.33 3.66-12.72 7.3-19.15 10.88l-5.78-16.27" class="cls-3"/><path d="M363.96 212.84c6.53-3.41 13.01-6.92 19.45-10.5l5.78 16.27c-6.44 3.58-12.92 7.1-19.45 10.5l-5.78-16.27" class="cls-6"/><path d="M343.5 223c2.48-1.14 5.01-2.35 7.63-3.64 4.29-2.11 8.57-4.29 12.83-6.51l5.78 16.27c-4.26 2.22-8.54 4.4-12.83 6.51-2.62 1.29-5.15 2.51-7.63 3.64L343.5 223" class="cls-3"/><path d="M323.02 230.65c6.7-1.76 13.35-4.37 20.49-7.65l5.78 16.27c-7.14 3.28-13.79 5.89-20.49 7.65l-5.78-16.27" class="cls-6"/><path d="M301.52 232.77c2.75.26 5.67.3 8.68.08 2.07-.14 4.19-.4 6.33-.78 2.18-.38 4.34-.86 6.49-1.43l5.78 16.27c-2.15.57-4.31 1.04-6.49 1.43-2.14.38-4.26.64-6.33.78-3.01.21-5.92.18-8.68-.08l-5.78-16.27" class="cls-3"/><path d="M284.43 226.27c3.92 3.59 9.97 5.82 17.09 6.51l5.78 16.27c-7.12-.68-13.17-2.91-17.09-6.51l-5.78-16.27" class="cls-6"/><path d="M285.37 235.32c.94 2.64 2.5 5.08 4.84 7.22l-5.78-16.27c-2.4-2.5-3.3-3.43-4.84-7.22l5.78 16.27M396.78 175.2c6.13-3.54 12.2-7.09 18.22-10.6.2-.12.41-.24.61-.36l5.78 16.27c-.2.12-.41.24-.61.36-6.02 3.52-12.1 7.07-18.22 10.6l-5.78-16.27" class="cls-3"/><path d="M377.63 186.07c6.43-3.58 12.82-7.22 19.15-10.88l5.78 16.27c-6.33 3.66-12.72 7.3-19.15 10.88l-5.78-16.27" class="cls-6"/><path d="M358.19 196.57c6.53-3.41 13.01-6.92 19.45-10.5l5.78 16.27c-6.44 3.58-12.92 7.1-19.45 10.5l-5.78-16.27" class="cls-3"/><path d="M337.73 206.73c2.48-1.14 5.01-2.35 7.63-3.64 4.29-2.11 8.57-4.29 12.83-6.51l5.78 16.27c-4.26 2.22-8.54 4.4-12.83 6.51-2.62 1.29-5.15 2.51-7.63 3.64l-5.78-16.27" class="cls-6"/><path d="M317.24 214.38c6.7-1.76 13.35-4.37 20.49-7.65l5.78 16.27c-7.14 3.28-13.79 5.89-20.49 7.65l-5.78-16.27" class="cls-3"/><path d="M295.74 216.5c2.75.26 5.67.3 8.68.08 2.07-.14 4.19-.4 6.33-.78 2.18-.38 4.34-.86 6.49-1.43l5.78 16.27c-2.15.57-4.31 1.04-6.49 1.43-2.14.38-4.26.64-6.33.78-3.01.21-5.92.18-8.68-.08l-5.78-16.27" class="cls-6"/><path d="M278.65 210c3.92 3.59 9.97 5.82 17.09 6.51l5.78 16.27c-7.12-.68-13.17-2.91-17.09-6.51L278.65 210" class="cls-3"/><path d="M279.59 219.04c1.39 3.23 1.92 4.29 4.84 7.22l-5.78-16.27c-2.4-2.5-3.3-3.43-4.84-7.22l5.78 16.27M391 158.92c6.13-3.54 12.2-7.09 18.22-10.6.2-.12.41-.24.61-.36l5.78 16.27c-.2.12-.41.24-.61.36-6.02 3.52-12.1 7.07-18.22 10.6L391 158.92" class="cls-6"/><path d="M371.85 169.8c6.43-3.58 12.82-7.22 19.15-10.88l5.78 16.27c-6.33 3.66-12.72 7.3-19.15 10.88l-5.78-16.27" class="cls-3"/><path d="M352.41 180.3c6.53-3.41 13.01-6.92 19.45-10.5l5.78 16.27c-6.44 3.58-12.92 7.1-19.45 10.5l-5.78-16.27" class="cls-6"/><path d="M331.95 190.46c2.48-1.14 5.01-2.35 7.63-3.64 4.29-2.11 8.57-4.29 12.83-6.51l5.78 16.27c-4.26 2.22-8.54 4.4-12.83 6.51-2.62 1.29-5.15 2.51-7.63 3.64l-5.78-16.27" class="cls-3"/><path d="M311.46 198.1c6.7-1.76 13.35-4.37 20.49-7.65l5.78 16.27c-7.14 3.28-13.79 5.89-20.49 7.65l-5.78-16.27" class="cls-6"/><path d="M289.96 200.23c2.75.26 5.67.3 8.68.08 2.07-.14 4.19-.4 6.33-.78 2.18-.38 4.34-.86 6.49-1.43l5.78 16.27c-2.15.57-4.31 1.04-6.49 1.43-2.14.38-4.26.64-6.33.78-3.01.21-5.92.18-8.68-.08l-5.78-16.27" class="cls-3"/><path d="M272.87 193.72c3.92 3.59 9.97 5.82 17.09 6.51l5.78 16.27c-7.12-.68-13.17-2.91-17.09-6.51l-5.78-16.27" class="cls-6"/><path d="M273.81 202.77c1.39 3.23 1.92 4.29 4.84 7.22l-5.78-16.27c-2.34-2.14-3.9-4.58-4.84-7.22l5.78 16.27M385.23 142.65c6.13-3.54 12.2-7.09 18.22-10.6.2-.12.41-.24.61-.36l5.78 16.27c-.2.12-.41.24-.61.36-6.02 3.52-12.1 7.07-18.22 10.6l-5.78-16.27" class="cls-3"/><path d="M366.08 153.53c6.43-3.58 12.82-7.22 19.15-10.88l5.78 16.27c-6.33 3.66-12.72 7.3-19.15 10.88l-5.78-16.27" class="cls-6"/><path d="M346.63 164.03c6.53-3.41 13.01-6.92 19.45-10.5l5.78 16.27c-6.44 3.58-12.92 7.1-19.45 10.5l-5.78-16.27" class="cls-3"/><path d="M326.17 174.19c2.48-1.14 5.01-2.35 7.63-3.64 4.29-2.11 8.57-4.29 12.83-6.51l5.78 16.27c-4.26 2.22-8.54 4.4-12.83 6.51-2.62 1.29-5.15 2.51-7.63 3.64l-5.78-16.27" class="cls-6"/><path d="M305.68 181.84c6.7-1.76 13.35-4.37 20.49-7.65l5.78 16.27c-7.14 3.28-13.79 5.89-20.49 7.65l-5.78-16.27" class="cls-3"/><path d="M284.19 183.96c2.75.26 5.67.3 8.68.08 2.07-.14 4.19-.4 6.33-.78 2.18-.38 4.34-.86 6.49-1.43l5.78 16.27c-2.15.57-4.31 1.04-6.49 1.43-2.14.38-4.26.64-6.33.78-3.01.21-5.92.18-8.68-.08l-5.78-16.27" class="cls-6"/><path d="M267.1 177.46c3.92 3.59 9.97 5.82 17.09 6.51l5.78 16.27c-7.12-.68-13.17-2.91-17.09-6.51l-5.78-16.27" class="cls-3"/><path d="M268.03 186.5c.94 2.64 2.5 5.08 4.84 7.22l-5.78-16.27c-2.34-2.14-3.9-4.58-4.84-7.22l5.78 16.27M379.45 126.38c6.13-3.54 12.2-7.09 18.22-10.6.2-.12.41-.24.61-.36l5.78 16.27c-.2.12-.41.24-.61.36-6.02 3.52-12.1 7.07-18.22 10.6l-5.78-16.27" class="cls-6"/><path d="M360.3 137.26c6.43-3.58 12.82-7.22 19.15-10.88l5.78 16.27c-6.33 3.66-12.72 7.3-19.15 10.88l-5.78-16.27" class="cls-3"/><path d="M340.85 147.76c6.53-3.41 13.01-6.92 19.45-10.5l5.78 16.27c-6.44 3.58-12.92 7.1-19.45 10.5l-5.78-16.27" class="cls-6"/><path d="M320.39 157.91c2.48-1.14 5.01-2.35 7.63-3.64 4.29-2.11 8.57-4.29 12.83-6.51l5.78 16.27c-4.26 2.22-8.54 4.4-12.83 6.51-2.62 1.29-5.15 2.51-7.63 3.64l-5.78-16.27" class="cls-3"/><path d="M299.9 165.56c6.7-1.76 13.35-4.37 20.49-7.65l5.78 16.27c-7.14 3.28-13.79 5.89-20.49 7.65l-5.78-16.27" class="cls-6"/><path d="M278.41 167.69c2.75.26 5.67.3 8.68.08 2.07-.14 4.19-.4 6.33-.78 2.18-.38 4.34-.86 6.49-1.43l5.78 16.27c-2.15.57-4.31 1.04-6.49 1.43-2.14.38-4.26.64-6.33.78-3.01.21-5.92.18-8.68-.08l-5.78-16.27" class="cls-3"/><path d="M261.32 161.18c3.92 3.59 9.97 5.82 17.09 6.51l5.78 16.27c-7.12-.68-13.17-2.91-17.09-6.51l-5.78-16.27" class="cls-6"/><path d="M262.26 170.23c.94 2.64 2.5 5.08 4.84 7.22l-5.78-16.27c-2.4-2.5-3.3-3.43-4.84-7.22l5.78 16.27M373.67 110.11c6.13-3.54 12.2-7.09 18.22-10.6.2-.12.41-.24.61-.36l5.78 16.27c-.2.12-.41.24-.61.36-6.02 3.52-12.1 7.07-18.22 10.6l-5.78-16.27" class="cls-3"/><path d="M354.52 120.99c6.43-3.58 12.82-7.22 19.15-10.88l5.78 16.27c-6.33 3.66-12.72 7.3-19.15 10.88l-5.78-16.27" class="cls-6"/><path d="M335.07 131.49c6.53-3.41 13.01-6.92 19.45-10.5l5.78 16.27c-6.44 3.58-12.92 7.1-19.45 10.5l-5.78-16.27" class="cls-3"/><path d="M314.61 141.64c2.48-1.14 5.01-2.35 7.63-3.64 4.29-2.11 8.57-4.29 12.83-6.51l5.78 16.27c-4.26 2.22-8.54 4.4-12.83 6.51-2.62 1.29-5.15 2.51-7.63 3.64l-5.78-16.27" class="cls-6"/><path d="M294.12 149.29c6.7-1.76 13.35-4.37 20.49-7.65l5.78 16.27c-7.14 3.28-13.79 5.89-20.49 7.65l-5.78-16.27" class="cls-3"/><path d="M272.63 151.42c2.75.26 5.67.3 8.68.08 2.07-.14 4.19-.4 6.33-.78 2.18-.38 4.34-.86 6.49-1.43l5.78 16.27c-2.15.57-4.31 1.04-6.49 1.43-2.14.38-4.26.64-6.33.78-3.01.21-5.92.18-8.68-.08l-5.78-16.27" class="cls-6"/><path d="M255.54 144.91c3.92 3.59 9.97 5.82 17.09 6.51l5.78 16.27c-7.12-.68-13.17-2.91-17.09-6.51l-5.78-16.27" class="cls-3"/><path d="M256.48 153.96c1.39 3.23 1.92 4.29 4.84 7.22l-5.78-16.27c-2.34-2.14-3.9-4.58-4.84-7.22l5.78 16.27M373.67 110.11c6.13-3.54 12.2-7.09 18.22-10.6.2-.12.41-.24.61-.36l-5.72-16.1c-.2.12-.41.24-.61.36-6.02 3.52-12.1 7.07-18.22 10.6l5.72 16.1" class="cls-6"/><path d="M354.52 120.99c6.43-3.58 12.82-7.22 19.15-10.88l-5.72-16.1c-6.33 3.66-12.72 7.3-19.15 10.88l5.72 16.1" class="cls-3"/><path d="M335.07 131.49c6.53-3.41 13.01-6.92 19.45-10.5l-5.72-16.1c-6.44 3.58-12.92 7.1-19.45 10.5l5.72 16.1" class="cls-6"/><path d="M314.61 141.64c2.48-1.14 5.01-2.35 7.63-3.64 4.29-2.11 8.57-4.29 12.83-6.51l-5.72-16.1c-4.26 2.22-8.54 4.4-12.83 6.51-2.62 1.29-5.15 2.51-7.63 3.64 1.71 4.83 4 11.27 5.72 16.1" class="cls-3"/><path d="M294.12 149.29c6.7-1.76 13.35-4.37 20.49-7.65-1.71-4.83-4-11.27-5.72-16.1-7.14 3.28-13.79 5.89-20.49 7.65 1.71 4.83 4 11.27 5.72 16.1" class="cls-6"/><path d="M272.63 151.42c2.75.26 5.67.3 8.68.08 2.07-.14 4.19-.4 6.33-.78 2.18-.38 4.34-.86 6.49-1.43-1.71-4.83-4-11.27-5.72-16.1-2.15.57-4.31 1.04-6.49 1.43-2.14.38-4.26.64-6.33.78-3.01.21-5.92.18-8.68-.08 1.71 4.83 4 11.27 5.72 16.1" class="cls-3"/><path d="M255.54 144.91c3.92 3.59 9.97 5.82 17.09 6.51-1.71-4.83-4-11.27-5.72-16.1-7.12-.68-13.17-2.91-17.09-6.51 1.71 4.83 2.89 11.82 5.72 16.1" class="cls-6"/><path d="M250.7 137.69c.94 2.64 2.5 5.08 4.84 7.22-1.71-4.83-4-11.27-5.72-16.1-2.34-2.14-3.9-4.58-4.84-7.22l5.72 16.1" class="cls-3"/></g><g class="cls-1"><path d="M301.5 276.93c0 2.46.36 4.81 1.14 7.02l-5.71-16.09c-.78-2.21-1.13-4.57-1.14-7.02l5.71 16.09" class="cls-6"/><path d="M305.45 259.76c-2.33 5.89-3.96 11.77-3.95 17.17l-5.71-16.09c-.02-5.4 1.62-11.28 3.95-17.17 1.71 4.83 5.8 10.97 5.71 16.09" class="cls-3"/><path d="M313.55 242.47c-.17.36-.35.71-.53 1.06-2.59 5.14-5.39 10.69-7.58 16.23-1.71-4.83-4-11.26-5.71-16.09 2.19-5.54 4.98-11.09 7.58-16.23.18-.35.35-.71.53-1.06l5.71 16.09" class="cls-6"/><path d="M319.64 224.11c-.92 5.97-3.16 12.34-6.09 18.36l-5.71-16.09c2.93-6.02 5.17-12.39 6.09-18.36 1.71 4.83 5.23 10.99 5.71 16.09" class="cls-3"/><path d="M318.86 210.49c1.41 3.97 1.55 8.65.79 13.62-1.71-4.83-4-11.26-5.71-16.09.77-4.96.62-9.65-.79-13.62l5.71 16.09" class="cls-6"/><path d="M295.78 260.84c0 2.46.36 4.81 1.14 7.02l-5.78-16.27c-.78-2.21-1.13-4.57-1.14-7.02l5.78 16.27" class="cls-3"/><path d="M293.96 227.39c-2.32 5.89-3.96 11.77-3.95 17.17l5.78 16.27c-.02-5.4 1.62-11.28 3.95-17.17l-5.78-16.27" class="cls-6"/><path d="M302.06 210.1c-.17.36-.35.71-.53 1.06-2.59 5.14-5.39 10.69-7.58 16.23l5.78 16.27c2.19-5.54 4.98-11.09 7.58-16.23.18-.35.35-.71.53-1.06l-5.78-16.27" class="cls-3"/><path d="M308.15 191.74c-.92 5.97-3.16 12.34-6.09 18.36l5.78 16.27c2.93-6.02 5.17-12.39 6.09-18.36l-5.78-16.27" class="cls-6"/><path d="M313.14 194.4c1.41 3.97 1.55 8.65.79 13.62l-5.78-16.27c.77-4.96.62-9.65-.79-13.62l5.78 16.27" class="cls-3"/><path d="M290.01 244.56c0 2.46.36 4.81 1.14 7.02l-5.78-16.27c-.78-2.21-1.13-4.57-1.14-7.02l5.78 16.27" class="cls-6"/><path d="M288.18 211.12c-2.32 5.89-3.96 11.77-3.95 17.17l5.78 16.27c-.02-5.4 1.62-11.28 3.95-17.17l-5.78-16.27" class="cls-3"/><path d="M296.28 193.83c-.17.36-.35.71-.53 1.06-2.59 5.14-5.39 10.69-7.58 16.23l5.78 16.27c2.19-5.54 4.98-11.09 7.58-16.23.18-.35.35-.71.53-1.06l-5.78-16.27" class="cls-6"/><path d="M302.37 175.48c-.92 5.97-3.16 12.34-6.09 18.36l5.78 16.27c2.93-6.02 5.17-12.39 6.09-18.36l-5.78-16.27" class="cls-3"/><path d="M307.36 178.13c1.41 3.97 1.55 8.65.79 13.62l-5.78-16.27c.77-4.96.62-9.65-.79-13.62l5.78 16.27" class="cls-6"/><path d="M284.23 228.29c0 2.46.36 4.81 1.14 7.02l-5.78-16.27c-.52-1.83-1.12-3.9-1.14-7.02l5.78 16.27" class="cls-3"/><path d="M282.4 194.85c-2.33 5.89-3.96 11.77-3.95 17.17l5.78 16.27c-.02-5.4 1.62-11.28 3.95-17.17l-5.78-16.27" class="cls-6"/><path d="M290.5 177.56c-.17.36-.35.71-.53 1.06-2.59 5.14-5.39 10.69-7.58 16.23l5.78 16.27c2.19-5.54 4.98-11.09 7.58-16.23.18-.35.35-.71.53-1.06l-5.78-16.27" class="cls-3"/><path d="M296.59 159.2c-.92 5.97-3.16 12.34-6.09 18.36l5.78 16.27c2.93-6.02 5.17-12.39 6.09-18.36l-5.78-16.27" class="cls-6"/><path d="M301.58 161.86c1.41 3.97 1.55 8.65.79 13.62l-5.78-16.27c.68-5.54.72-8.66-.79-13.62l5.78 16.27" class="cls-3"/><path d="M278.45 212.02c.11 2.15.22 4.37 1.14 7.02l-5.78-16.27c-.52-1.83-1.12-3.9-1.14-7.02l5.78 16.27" class="cls-6"/><path d="M276.62 178.58c-2.33 5.89-3.96 11.77-3.95 17.17l5.78 16.27c-.02-5.4 1.62-11.28 3.95-17.17l-5.78-16.27" class="cls-3"/><path d="M284.73 161.29c-.17.36-.35.71-.53 1.06-2.59 5.14-5.39 10.69-7.58 16.23l5.78 16.27c2.19-5.54 4.98-11.09 7.58-16.23.18-.35.35-.71.53-1.06l-5.78-16.27" class="cls-6"/><path d="M290.82 142.93c-.92 5.97-3.16 12.34-6.09 18.36l5.78 16.27c2.93-6.02 5.17-12.39 6.09-18.36l-5.78-16.27" class="cls-3"/><path d="M295.8 145.59c.95 3.25 1.77 6.06.79 13.62l-5.78-16.27c.77-4.96.62-9.65-.79-13.62l5.78 16.27" class="cls-6"/><path d="M272.67 195.75c.11 2.15.22 4.37 1.14 7.02l-5.78-16.27c-.78-2.21-1.13-4.57-1.14-7.02l5.78 16.27" class="cls-3"/><path d="M270.84 162.31c-2.32 5.89-3.96 11.77-3.95 17.17l5.78 16.27c-.01-5.4 1.62-11.28 3.95-17.17l-5.78-16.27" class="cls-6"/><path d="M278.95 145.02c-.17.36-.35.71-.53 1.06-2.59 5.14-5.39 10.69-7.58 16.23l5.78 16.27c2.19-5.54 4.98-11.09 7.58-16.23.18-.35.35-.71.53-1.06l-5.78-16.27" class="cls-3"/><path d="M285.04 126.66c-.92 5.97-3.16 12.34-6.09 18.36l5.78 16.27c2.93-6.02 5.17-12.39 6.09-18.36l-5.78-16.27" class="cls-6"/><path d="M290.03 129.32c1.41 3.97 1.55 8.65.79 13.62l-5.78-16.27c.77-4.96.62-9.65-.79-13.62l5.78 16.27" class="cls-3"/><path d="M266.89 179.48c0 2.46.36 4.81 1.14 7.02l-5.78-16.27c-.78-2.21-1.13-4.57-1.14-7.02l5.78 16.27" class="cls-6"/><path d="M265.06 146.04c-2.33 5.89-3.96 11.77-3.95 17.17l5.78 16.27c-.02-5.4 1.62-11.28 3.95-17.17l-5.78-16.27" class="cls-3"/><path d="M273.17 128.75c-.17.36-.35.71-.53 1.06-2.59 5.14-5.39 10.69-7.58 16.23l5.78 16.27c2.19-5.54 4.98-11.09 7.58-16.23.18-.35.35-.71.53-1.06l-5.78-16.27" class="cls-6"/><path d="M279.26 110.39c-.92 5.97-3.16 12.34-6.09 18.36l5.78 16.27c2.93-6.02 5.17-12.39 6.09-18.36l-5.78-16.27" class="cls-3"/><path d="M284.25 113.04c1.41 3.97 1.55 8.65.79 13.62l-5.78-16.27c.77-4.96.62-9.65-.79-13.62l5.78 16.27" class="cls-6"/><path d="M261.11 163.21c0 2.46.36 4.81 1.14 7.02l-5.78-16.27c-.52-1.83-1.12-3.9-1.14-7.02l5.78 16.27" class="cls-3"/><path d="M259.28 129.77c-2.33 5.89-3.96 11.77-3.95 17.17l5.78 16.27c-.02-5.4 1.62-11.28 3.95-17.17l-5.78-16.27" class="cls-6"/><path d="M267.39 112.47c-.17.36-.35.71-.53 1.06-2.59 5.14-5.39 10.69-7.58 16.23l5.78 16.27c2.19-5.54 4.98-11.09 7.58-16.23.18-.35.35-.71.53-1.06l-5.78-16.27" class="cls-3"/><path d="M273.48 94.12c-.92 5.97-3.16 12.34-6.09 18.36l5.78 16.27c2.93-6.02 5.17-12.39 6.09-18.36l-5.78-16.27" class="cls-6"/><path d="M278.47 96.77c1.41 3.97 1.55 8.65.79 13.62l-5.78-16.27c.68-5.54.72-8.66-.79-13.62l5.78 16.27" class="cls-3"/><path d="M255.33 146.94c.11 2.15.22 4.37 1.14 7.02l-5.78-16.27c-.78-2.21-1.13-4.57-1.14-7.02l5.78 16.27" class="cls-6"/><path d="M253.51 113.5c-2.33 5.89-3.96 11.77-3.95 17.17l5.78 16.27c-.02-5.4 1.62-11.28 3.95-17.17l-5.78-16.27" class="cls-3"/><path d="M261.61 96.21c-.17.36-.35.71-.53 1.06-2.59 5.14-5.39 10.69-7.58 16.23l5.78 16.27c2.19-5.54 4.98-11.09 7.58-16.23.18-.35.35-.71.53-1.06l-5.78-16.27" class="cls-6"/><path d="M267.7 77.85c-.92 5.97-3.16 12.34-6.09 18.36l5.78 16.27c2.93-6.02 5.17-12.39 6.09-18.36l-5.78-16.27" class="cls-3"/><path d="M272.69 80.5c.95 3.25 1.77 6.06.79 13.62l-5.78-16.27c.68-5.54.72-8.66-.79-13.62l5.78 16.27" class="cls-6"/><path d="M249.56 130.67c0 2.46.36 4.81 1.14 7.02l-5.72-16.1c-.78-2.21-1.13-4.57-1.14-7.02l5.72 16.1" class="cls-3"/><path d="M253.51 113.5c-2.33 5.89-3.96 11.77-3.95 17.17l-5.72-16.1c-.02-5.4 1.62-11.28 3.95-17.17 1.71 4.83 5.81 10.97 5.72 16.1" class="cls-6"/><path d="M261.61 96.21c-.17.36-.35.71-.53 1.06-2.59 5.14-5.39 10.69-7.58 16.23-1.71-4.83-4-11.27-5.72-16.1 2.19-5.54 4.98-11.09 7.58-16.23.18-.35.35-.71.53-1.06l5.72 16.1" class="cls-3"/><path d="M267.7 77.85c-.92 5.97-3.16 12.34-6.09 18.36l-5.72-16.1c2.93-6.02 5.17-12.39 6.09-18.36 1.71 4.83 5.23 10.99 5.72 16.1" class="cls-6"/><path d="M266.91 64.23c.95 3.25 1.77 6.06.79 13.62l-5.72-16.1c.77-4.96.62-9.65-.79-13.62l5.72 16.1" class="cls-3"/></g><path stroke-width="0" d="m318.86 210.49-5.71-16.09-5.78-16.27-5.78-16.27-5.78-16.27c.11.38.22.74.31 1.09-.1-.36-.21-.73-.31-1.09l-5.78-16.27-5.78-16.27-5.78-16.27-5.78-16.27c.11.38.22.74.32 1.1-.1-.36-.21-.73-.32-1.1l-5.78-16.27c.11.38.22.74.31 1.09-.1-.36-.21-.73-.31-1.09l-5.72-16.1c1.41 3.97 1.55 8.65.79 13.62-.92 5.97-3.16 12.34-6.09 18.36-.17.36-.35.71-.53 1.06-2.59 5.14-5.39 10.69-7.58 16.23-2.33 5.89-3.96 11.77-3.95 17.17 0 2.46.36 4.81 1.14 7.02l5.72 16.1 5.78 16.27c-.47-1.35-.73-2.59-.88-3.77.23 1.46.57 2.66.88 3.77l5.78 16.27 5.78 16.27 5.78 16.27c-.47-1.35-.73-2.59-.88-3.77.23 1.46.57 2.66.88 3.77l5.78 16.27c-.47-1.35-.73-2.59-.88-3.77.23 1.46.57 2.66.88 3.77l5.78 16.27 5.78 16.27 5.78 16.27 5.71 16.09c-.78-2.21-1.13-4.57-1.14-7.02-.02-5.4 1.62-11.28 3.95-17.17 2.19-5.54 4.98-11.09 7.58-16.23.18-.35.35-.71.53-1.06 2.93-6.02 5.17-12.39 6.09-18.36.77-4.96.62-9.65-.79-13.62Z" opacity=".4" style="mix-blend-mode:multiply"/><path stroke-width="0" d="M317.27 208.51c.57.61 1.1 1.28 1.59 1.98l-5.71-16.09-5.46-15.37-8.38 3.23-9.83-14.19-9.83-14.2c-.23-.29-.49-.63-.76-.98.27.33.54.67.76.98l-9.83-14.19-9.83-14.2-9.83-14.19-4.76-6.87c-.98 3.5-1.58 6.92-1.57 10.17 0 2.46.36 4.81 1.14 7.02l5.72 16.1 5.78 16.27c-.47-1.35-.73-2.59-.88-3.77.23 1.46.57 2.66.88 3.77l5.78 16.27 5.78 16.27 5.78 16.27c-.47-1.35-.73-2.59-.88-3.77.23 1.46.57 2.66.88 3.77l3.69 10.38c1.51-.92 3.03-1.81 4.55-2.66 3.75-2.09 7.52-3.91 11.23-5.2 2.93-1.02 5.83-1.71 8.67-1.94 1.23-.1 2.46-.12 3.67-.04 5.07.34 8.88 2.23 11.65 5.2Z" opacity=".6" style="mix-blend-mode:multiply"/><g class="cls-1"><path d="M317.84 208.17c.39.74.73 1.52 1.02 2.33l-5.71-16.09c-.29-.81-.62-1.58-1.02-2.33l5.71 16.09" class="cls-6"/><path d="M304.4 199.18c1.22.22 2.4.53 3.55.92 4.8 1.65 7.99 4.47 9.89 8.06l-5.71-16.09c-1.9-3.59-5.08-6.41-9.89-8.06-1.14-.39-2.33-.7-3.55-.92l5.71 16.09" class="cls-3"/><path d="M283.32 200.88c4.16-1.04 8.28-1.81 12.2-2.08 3.1-.22 6.08-.12 8.88.39l-5.71-16.09c-2.8-.51-5.78-.61-8.88-.39-3.93.27-8.04 1.05-12.2 2.08l5.71 16.09" class="cls-6"/><path d="M261.92 207.48c3.91-1.32 7.83-2.61 11.77-3.84 3.2-1.01 6.43-1.96 9.64-2.76l-5.71-16.09c-3.2.8-6.43 1.75-9.64 2.76-3.93 1.24-7.86 2.52-11.77 3.84l5.71 16.09" class="cls-3"/><path d="M241.02 215.01c6.92-2.64 13.89-5.16 20.89-7.53l-5.71-16.09c-7.01 2.37-13.98 4.88-20.89 7.53l5.71 16.09" class="cls-6"/><path d="M220.43 223.33c6.81-2.9 13.67-5.68 20.59-8.32l-5.71-16.09c-6.92 2.64-13.78 5.42-20.59 8.32l5.71 16.09" class="cls-3"/><path d="M200.19 232.42c6.68-3.15 13.43-6.19 20.24-9.09l-5.71-16.09c-6.81 2.9-13.56 5.94-20.24 9.09l5.71 16.09" class="cls-6"/><path d="M180.36 242.24c6.53-3.39 13.15-6.67 19.83-9.82l-5.71-16.09c-6.68 3.15-13.29 6.43-19.83 9.82l5.71 16.09" class="cls-3"/><path d="M161 252.77c6.37-3.62 12.83-7.13 19.37-10.53l-5.71-16.09c-6.54 3.39-13 6.9-19.37 10.53l5.71 16.09" class="cls-6"/><path d="M142.15 263.96c6.19-3.84 12.47-7.57 18.84-11.19l-5.71-16.09c-6.37 3.62-12.66 7.35-18.84 11.19l5.71 16.09" class="cls-3"/><path d="M123.87 275.8c5.99-4.05 12.09-7.99 18.28-11.83l-5.71-16.09c-6.19 3.84-12.29 7.79-18.28 11.83l5.71 16.09" class="cls-6"/><path d="M106.23 288.23c5.77-4.24 11.65-8.39 17.64-12.44l-5.71-16.09c-5.99 4.05-11.87 8.19-17.64 12.44l5.71 16.09" class="cls-3"/><path d="M89.27 301.25c5.53-4.43 11.19-8.77 16.96-13.01l-5.71-16.09c-5.77 4.24-11.43 8.58-16.96 13.01l5.71 16.09" class="cls-6"/><path d="M73.05 314.8c5.28-4.6 10.69-9.12 16.22-13.55l-5.71-16.09c-5.53 4.43-10.94 8.95-16.22 13.55l5.71 16.09" class="cls-3"/><path d="M57.66 328.82c4.99-4.76 10.12-9.43 15.39-14.02l-5.71-16.09c-5.26 4.59-10.4 9.27-15.39 14.02l5.71 16.09" class="cls-6"/><path d="M312.12 192.08c.39.74.73 1.52 1.02 2.33l-5.78-16.27c-.29-.81-.62-1.58-1.02-2.33l5.78 16.27" class="cls-3"/><path d="M292.91 166.82c1.22.22 2.4.53 3.55.92 4.8 1.65 7.99 4.47 9.89 8.06l5.78 16.27c-1.9-3.59-5.08-6.41-9.89-8.06-1.14-.39-2.33-.7-3.55-.92l-5.78-16.27" class="cls-6"/><path d="M271.83 168.51c4.16-1.04 8.28-1.81 12.2-2.08 3.1-.22 6.08-.12 8.88.39l5.78 16.27c-2.8-.51-5.78-.61-8.88-.39-3.93.27-8.04 1.05-12.2 2.08l-5.78-16.27" class="cls-3"/><path d="M250.42 175.11c3.91-1.32 7.83-2.61 11.77-3.84 3.2-1.01 6.43-1.96 9.64-2.76l5.78 16.27c-3.2.8-6.43 1.75-9.64 2.76-3.93 1.24-7.86 2.52-11.77 3.84l-5.78-16.27" class="cls-6"/><path d="M229.53 182.64c6.92-2.64 13.89-5.16 20.89-7.53l5.78 16.27c-7.01 2.37-13.98 4.88-20.89 7.53l-5.78-16.27" class="cls-3"/><path d="M208.94 190.97c6.81-2.9 13.67-5.68 20.59-8.32l5.78 16.27c-6.92 2.64-13.78 5.42-20.59 8.32l-5.78-16.27" class="cls-6"/><path d="M188.7 200.06c6.68-3.15 13.43-6.19 20.24-9.09l5.78 16.27c-6.81 2.9-13.56 5.94-20.24 9.09l-5.78-16.27" class="cls-3"/><path d="M168.87 209.88c6.53-3.39 13.15-6.67 19.83-9.82l5.78 16.27c-6.68 3.15-13.29 6.43-19.83 9.82l-5.78-16.27" class="cls-6"/><path d="M149.5 220.41c6.37-3.62 12.83-7.13 19.37-10.53l5.78 16.27c-6.54 3.39-13 6.9-19.37 10.53l-5.78-16.27" class="cls-3"/><path d="M130.66 231.6c6.19-3.84 12.47-7.57 18.84-11.19l5.78 16.27c-6.37 3.62-12.66 7.35-18.84 11.19l-5.78-16.27" class="cls-6"/><path d="M112.38 243.43c5.99-4.05 12.09-7.99 18.28-11.83l5.78 16.27c-6.19 3.84-12.29 7.79-18.28 11.83l-5.78-16.27" class="cls-3"/><path d="M94.74 255.87c5.77-4.24 11.65-8.39 17.64-12.44l5.78 16.27c-5.99 4.05-11.87 8.19-17.64 12.44l-5.78-16.27" class="cls-6"/><path d="M77.77 268.88c5.53-4.43 11.19-8.77 16.96-13.01l5.78 16.27c-5.77 4.24-11.43 8.58-16.96 13.01l-5.78-16.27" class="cls-3"/><path d="M61.55 282.43c5.28-4.6 10.69-9.12 16.22-13.55l5.78 16.27c-5.53 4.43-10.94 8.95-16.22 13.55l-5.78-16.27" class="cls-6"/><path d="M51.94 312.73c4.99-4.76 10.12-9.43 15.39-14.02l-5.78-16.27c-5.26 4.59-10.4 9.27-15.39 14.02l5.78 16.27" class="cls-3"/><path d="M306.34 175.8c.39.74.73 1.52 1.02 2.33l-5.78-16.27c-.29-.81-.62-1.58-1.02-2.33l5.78 16.27" class="cls-6"/><path d="M287.13 150.55c1.22.22 2.4.53 3.55.92 4.8 1.65 7.99 4.47 9.89 8.06l5.78 16.27c-1.9-3.59-5.08-6.41-9.89-8.06-1.14-.39-2.33-.7-3.55-.92l-5.78-16.27" class="cls-3"/><path d="M266.05 152.24c4.16-1.04 8.28-1.81 12.2-2.08 3.1-.22 6.08-.12 8.88.39l5.78 16.27c-2.8-.51-5.78-.61-8.88-.39-3.93.27-8.04 1.05-12.2 2.08l-5.78-16.27" class="cls-6"/><path d="M244.65 158.84c3.91-1.32 7.83-2.61 11.77-3.84 3.2-1.01 6.43-1.96 9.64-2.76l5.78 16.27c-3.2.8-6.43 1.75-9.64 2.76-3.93 1.24-7.86 2.52-11.77 3.84l-5.78-16.27" class="cls-3"/><path d="M223.75 166.37c6.92-2.64 13.89-5.16 20.89-7.53l5.78 16.27c-7.01 2.37-13.98 4.88-20.89 7.53l-5.78-16.27" class="cls-6"/><path d="M203.16 174.7c6.81-2.9 13.67-5.68 20.59-8.32l5.78 16.27c-6.92 2.64-13.78 5.42-20.59 8.32l-5.78-16.27" class="cls-3"/><path d="M182.92 183.79c6.68-3.15 13.43-6.19 20.24-9.09l5.78 16.27c-6.81 2.9-13.56 5.94-20.24 9.09l-5.78-16.27" class="cls-6"/><path d="M163.09 193.61c6.53-3.39 13.15-6.67 19.83-9.82l5.78 16.27c-6.68 3.15-13.29 6.43-19.83 9.82l-5.78-16.27" class="cls-3"/><path d="M143.72 204.14c6.37-3.62 12.83-7.13 19.37-10.53l5.78 16.27c-6.54 3.39-13 6.9-19.37 10.53l-5.78-16.27" class="cls-6"/><path d="M124.88 215.33c6.19-3.84 12.47-7.57 18.84-11.19l5.78 16.27c-6.37 3.62-12.66 7.35-18.84 11.19l-5.78-16.27" class="cls-3"/><path d="M106.6 227.16c5.99-4.05 12.09-7.99 18.28-11.83l5.78 16.27c-6.19 3.84-12.29 7.79-18.28 11.83l-5.78-16.27" class="cls-6"/><path d="M88.96 239.6c5.77-4.24 11.65-8.39 17.64-12.44l5.78 16.27c-5.99 4.05-11.87 8.19-17.64 12.44l-5.78-16.27" class="cls-3"/><path d="M71.99 252.61c5.53-4.43 11.19-8.77 16.96-13.01l5.78 16.27c-5.77 4.24-11.43 8.58-16.96 13.01l-5.78-16.27" class="cls-6"/><path d="M55.77 266.17c5.28-4.6 10.69-9.12 16.22-13.55l5.78 16.27c-5.53 4.43-10.94 8.95-16.22 13.55l-5.78-16.27" class="cls-3"/><path d="M46.16 296.46c4.99-4.76 10.12-9.43 15.39-14.02l-5.78-16.27c-5.26 4.59-10.4 9.27-15.39 14.02l5.78 16.27" class="cls-6"/><path d="M300.57 159.53c.39.74.73 1.52 1.02 2.33l-5.78-16.27c-.3-.7-.67-1.65-1.02-2.33l5.78 16.27" class="cls-3"/><path d="M281.35 134.28c1.22.22 2.4.53 3.55.92 4.8 1.65 7.99 4.47 9.89 8.06l5.78 16.27c-1.9-3.59-5.08-6.41-9.89-8.06-1.14-.39-2.33-.7-3.55-.92l-5.78-16.27" class="cls-6"/><path d="M260.27 135.97c4.16-1.04 8.28-1.81 12.2-2.08 3.1-.22 6.08-.12 8.88.39l5.78 16.27c-2.8-.51-5.78-.61-8.88-.39-3.93.27-8.04 1.05-12.2 2.08l-5.78-16.27" class="cls-3"/><path d="M238.87 142.57c3.91-1.32 7.83-2.61 11.77-3.84 3.2-1.01 6.43-1.96 9.64-2.76l5.78 16.27c-3.2.8-6.43 1.75-9.64 2.76-3.93 1.24-7.86 2.52-11.77 3.84l-5.78-16.27" class="cls-6"/><path d="M217.97 150.1c6.92-2.64 13.89-5.16 20.89-7.53l5.78 16.27c-7.01 2.37-13.98 4.88-20.89 7.53l-5.78-16.27" class="cls-3"/><path d="M197.38 158.42c6.81-2.9 13.67-5.68 20.59-8.32l5.78 16.27c-6.92 2.64-13.78 5.42-20.59 8.32l-5.78-16.27" class="cls-6"/><path d="M177.14 167.52c6.68-3.15 13.43-6.19 20.24-9.09l5.78 16.27c-6.81 2.9-13.56 5.94-20.24 9.09l-5.78-16.27" class="cls-3"/><path d="M157.31 177.34c6.53-3.39 13.15-6.67 19.83-9.82l5.78 16.27c-6.68 3.15-13.29 6.43-19.83 9.82l-5.78-16.27" class="cls-6"/><path d="M137.94 187.86c6.37-3.62 12.83-7.13 19.37-10.53l5.78 16.27c-6.54 3.39-13 6.9-19.37 10.53l-5.78-16.27" class="cls-3"/><path d="M119.1 199.06c6.19-3.84 12.47-7.57 18.84-11.19l5.78 16.27c-6.37 3.62-12.66 7.35-18.84 11.19l-5.78-16.27" class="cls-6"/><path d="M100.82 210.89c5.99-4.05 12.09-7.99 18.28-11.83l5.78 16.27c-6.19 3.84-12.29 7.79-18.28 11.83l-5.78-16.27" class="cls-3"/><path d="M83.18 223.33c5.77-4.24 11.65-8.39 17.64-12.44l5.78 16.27c-5.99 4.05-11.87 8.19-17.64 12.44l-5.78-16.27" class="cls-6"/><path d="M66.22 236.34c5.53-4.43 11.19-8.77 16.96-13.01l5.78 16.27c-5.77 4.24-11.43 8.58-16.96 13.01l-5.78-16.27" class="cls-3"/><path d="M49.99 249.89c5.28-4.6 10.69-9.12 16.22-13.55l5.78 16.27c-5.53 4.43-10.94 8.95-16.22 13.55l-5.78-16.27" class="cls-6"/><path d="M40.39 280.19c4.99-4.76 10.12-9.43 15.39-14.02L50 249.9c-5.26 4.59-10.4 9.27-15.39 14.02l5.78 16.27" class="cls-3"/><path d="M294.79 143.26c.31.69.76 1.61 1.02 2.33l-5.78-16.27c-.29-.81-.62-1.58-1.02-2.33l5.78 16.27" class="cls-6"/><path d="M275.57 118.01c1.22.22 2.4.53 3.55.92 4.8 1.65 7.99 4.47 9.89 8.06l5.78 16.27c-1.9-3.59-5.08-6.41-9.89-8.06-1.14-.39-2.33-.7-3.55-.92l-5.78-16.27" class="cls-3"/><path d="M254.49 119.7c4.16-1.04 8.28-1.81 12.2-2.08 3.1-.22 6.08-.12 8.88.39l5.78 16.27c-2.8-.51-5.78-.61-8.88-.39-3.93.27-8.04 1.05-12.2 2.08l-5.78-16.27" class="cls-6"/><path d="M233.09 126.3c3.91-1.32 7.83-2.61 11.77-3.84 3.2-1.01 6.43-1.96 9.64-2.76l5.78 16.27c-3.2.8-6.43 1.75-9.64 2.76-3.93 1.24-7.86 2.52-11.77 3.84l-5.78-16.27" class="cls-3"/><path d="M212.19 133.83c6.92-2.64 13.89-5.16 20.89-7.53l5.78 16.27c-7.01 2.37-13.98 4.88-20.89 7.53l-5.78-16.27" class="cls-6"/><path d="M191.6 142.16c6.81-2.9 13.67-5.68 20.59-8.32l5.78 16.27c-6.92 2.64-13.78 5.42-20.59 8.32l-5.78-16.27" class="cls-3"/><path d="M171.36 151.25c6.68-3.15 13.43-6.19 20.24-9.09l5.78 16.27c-6.81 2.9-13.56 5.94-20.24 9.09l-5.78-16.27" class="cls-6"/><path d="M151.54 161.07c6.53-3.39 13.15-6.67 19.83-9.82l5.78 16.27c-6.68 3.15-13.29 6.43-19.83 9.82l-5.78-16.27" class="cls-3"/><path d="M132.17 171.59c6.37-3.62 12.83-7.13 19.37-10.53l5.78 16.27c-6.54 3.39-13 6.9-19.37 10.53l-5.78-16.27" class="cls-6"/><path d="M113.32 182.79c6.19-3.84 12.47-7.57 18.84-11.19l5.78 16.27c-6.37 3.62-12.66 7.35-18.84 11.19l-5.78-16.27" class="cls-3"/><path d="M95.04 194.62c5.99-4.05 12.09-7.99 18.28-11.83l5.78 16.27c-6.19 3.84-12.29 7.79-18.28 11.83l-5.78-16.27" class="cls-6"/><path d="M77.4 207.06c5.77-4.24 11.65-8.39 17.64-12.44l5.78 16.27c-5.99 4.05-11.87 8.19-17.64 12.44l-5.78-16.27" class="cls-3"/><path d="M60.44 220.07c5.53-4.43 11.19-8.77 16.96-13.01l5.78 16.27c-5.77 4.24-11.43 8.58-16.96 13.01l-5.78-16.27" class="cls-6"/><path d="M44.22 233.62c5.28-4.6 10.69-9.12 16.22-13.55l5.78 16.27c-5.53 4.43-10.94 8.95-16.22 13.55l-5.78-16.27" class="cls-3"/><path d="M34.61 263.92c4.99-4.76 10.12-9.43 15.39-14.02l-5.78-16.27c-4.65 4.16-10.82 9.76-15.39 14.02l5.78 16.27" class="cls-6"/><path d="M289.01 126.99c.39.74.73 1.52 1.02 2.33l-5.78-16.27c-.29-.81-.62-1.58-1.02-2.33l5.78 16.27" class="cls-3"/><path d="M269.79 101.73c1.22.22 2.4.53 3.55.92 4.8 1.65 7.99 4.47 9.89 8.06l5.78 16.27c-1.9-3.59-5.08-6.41-9.89-8.06-1.14-.39-2.33-.7-3.55-.92l-5.78-16.27" class="cls-6"/><path d="M248.71 103.43c4.16-1.04 8.28-1.81 12.2-2.08 3.1-.22 6.08-.12 8.88.39l5.78 16.27c-2.8-.51-5.78-.61-8.88-.39-3.93.27-8.04 1.05-12.2 2.08l-5.78-16.27" class="cls-3"/><path d="M227.31 110.03c3.91-1.32 7.83-2.61 11.77-3.84 3.2-1.01 6.43-1.96 9.64-2.76l5.78 16.27c-3.2.8-6.43 1.75-9.64 2.76-3.93 1.24-7.86 2.52-11.77 3.84l-5.78-16.27" class="cls-6"/><path d="M206.41 117.56c6.92-2.64 13.89-5.16 20.89-7.53l5.78 16.27c-7.01 2.37-13.98 4.88-20.89 7.53l-5.78-16.27" class="cls-3"/><path d="M185.83 125.88c6.81-2.9 13.67-5.68 20.59-8.32l5.78 16.27c-6.92 2.64-13.78 5.42-20.59 8.32l-5.78-16.27" class="cls-6"/><path d="M165.58 134.97c6.68-3.15 13.43-6.19 20.24-9.09l5.78 16.27c-6.81 2.9-13.56 5.94-20.24 9.09l-5.78-16.27" class="cls-3"/><path d="M145.76 144.79c6.53-3.39 13.15-6.67 19.83-9.82l5.78 16.27c-6.68 3.15-13.29 6.43-19.83 9.82l-5.78-16.27" class="cls-6"/><path d="M126.39 155.32c6.37-3.62 12.83-7.13 19.37-10.53l5.78 16.27c-6.54 3.39-13 6.9-19.37 10.53l-5.78-16.27" class="cls-3"/><path d="M107.54 166.51c6.19-3.84 12.47-7.57 18.84-11.19l5.78 16.27c-6.37 3.62-12.66 7.35-18.84 11.19l-5.78-16.27" class="cls-6"/><path d="M89.27 178.35c5.99-4.05 12.09-7.99 18.28-11.83l5.78 16.27c-6.19 3.84-12.29 7.79-18.28 11.83l-5.78-16.27" class="cls-3"/><path d="M71.62 190.78c5.77-4.24 11.65-8.39 17.64-12.44l5.78 16.27c-5.99 4.05-11.87 8.19-17.64 12.44l-5.78-16.27" class="cls-6"/><path d="M54.66 203.8c5.53-4.43 11.19-8.77 16.96-13.01l5.78 16.27c-5.77 4.24-11.43 8.58-16.96 13.01l-5.78-16.27" class="cls-3"/><path d="M38.44 217.35c5.28-4.6 10.69-9.12 16.22-13.55l5.78 16.27c-5.53 4.43-10.94 8.95-16.22 13.55l-5.78-16.27" class="cls-6"/><path d="M28.83 247.65c4.58-4.25 10.72-9.88 15.39-14.02l-5.78-16.27c-5.26 4.59-10.4 9.27-15.39 14.02l5.78 16.27" class="cls-3"/><path d="M283.23 110.72c.39.74.73 1.52 1.02 2.33l-5.78-16.27c-.29-.81-.62-1.58-1.02-2.33l5.78 16.27" class="cls-6"/><path d="M264.02 85.46c1.22.22 2.4.53 3.55.92 4.8 1.65 7.99 4.47 9.89 8.06l5.78 16.27c-1.9-3.59-5.08-6.41-9.89-8.06-1.14-.39-2.33-.7-3.55-.92l-5.78-16.27" class="cls-3"/><path d="M242.94 87.16c4.16-1.04 8.28-1.81 12.2-2.08 3.1-.22 6.08-.12 8.88.39l5.78 16.27c-2.8-.51-5.78-.61-8.88-.39-3.93.27-8.04 1.05-12.2 2.08l-5.78-16.27" class="cls-6"/><path d="M221.53 93.76c3.91-1.32 7.83-2.61 11.77-3.84 3.2-1.01 6.43-1.96 9.64-2.76l5.78 16.27c-3.2.8-6.43 1.75-9.64 2.76-3.93 1.24-7.86 2.52-11.77 3.84l-5.78-16.27" class="cls-3"/><path d="M200.64 101.29c6.92-2.64 13.89-5.16 20.89-7.53l5.78 16.27c-7.01 2.37-13.98 4.88-20.89 7.53l-5.78-16.27" class="cls-6"/><path d="M180.05 109.61c6.81-2.9 13.67-5.68 20.59-8.32l5.78 16.27c-6.92 2.64-13.78 5.42-20.59 8.32l-5.78-16.27" class="cls-3"/><path d="M159.81 118.7c6.68-3.15 13.43-6.19 20.24-9.09l5.78 16.27c-6.81 2.9-13.56 5.94-20.24 9.09l-5.78-16.27" class="cls-6"/><path d="M139.98 128.53c6.53-3.39 13.15-6.67 19.83-9.82l5.78 16.27c-6.68 3.15-13.29 6.43-19.83 9.82l-5.78-16.27" class="cls-3"/><path d="M120.61 139.05c6.37-3.62 12.83-7.13 19.37-10.53l5.78 16.27c-6.54 3.39-13 6.9-19.37 10.53l-5.78-16.27" class="cls-6"/><path d="M101.76 150.24c6.19-3.84 12.47-7.57 18.84-11.19l5.78 16.27c-6.37 3.62-12.66 7.35-18.84 11.19l-5.78-16.27" class="cls-3"/><path d="M83.49 162.08c5.99-4.05 12.09-7.99 18.28-11.83l5.78 16.27c-6.19 3.84-12.29 7.79-18.28 11.83l-5.78-16.27" class="cls-6"/><path d="M65.84 174.51c5.77-4.24 11.65-8.39 17.64-12.44l5.78 16.27c-5.99 4.05-11.87 8.19-17.64 12.44l-5.78-16.27" class="cls-3"/><path d="M48.88 187.53c5.53-4.43 11.19-8.77 16.96-13.01l5.78 16.27c-5.77 4.24-11.43 8.58-16.96 13.01l-5.78-16.27" class="cls-6"/><path d="M32.66 201.08c5.28-4.6 10.69-9.12 16.22-13.55l5.78 16.27c-5.53 4.43-10.94 8.95-16.22 13.55l-5.78-16.27" class="cls-3"/><path d="M23.05 231.37c4.99-4.76 10.12-9.43 15.39-14.02l-5.78-16.27c-5.26 4.59-10.4 9.27-15.39 14.02l5.78 16.27" class="cls-6"/><path d="M277.45 94.45c.39.74.73 1.52 1.02 2.33l-5.78-16.27c-.3-.7-.67-1.65-1.02-2.33l5.78 16.27" class="cls-3"/><path d="M258.24 69.19c1.22.22 2.4.53 3.55.92 4.8 1.65 7.99 4.47 9.89 8.06l5.78 16.27c-1.9-3.59-5.08-6.41-9.89-8.06-1.14-.39-2.33-.7-3.55-.92l-5.78-16.27" class="cls-6"/><path d="M237.16 70.88c4.16-1.04 8.28-1.81 12.2-2.08 3.1-.22 6.08-.12 8.88.39l5.78 16.27c-2.8-.51-5.78-.61-8.88-.39-3.93.27-8.04 1.05-12.2 2.08l-5.78-16.27" class="cls-3"/><path d="M215.75 77.49c3.91-1.32 7.83-2.61 11.77-3.84 3.2-1.01 6.43-1.96 9.64-2.76l5.78 16.27c-3.2.8-6.43 1.75-9.64 2.76-3.93 1.24-7.86 2.52-11.77 3.84l-5.78-16.27" class="cls-6"/><path d="M194.86 85.02c6.92-2.64 13.89-5.16 20.89-7.53l5.78 16.27c-7.01 2.37-13.98 4.88-20.89 7.53l-5.78-16.27" class="cls-3"/><path d="M174.27 93.34c6.81-2.9 13.67-5.68 20.59-8.32l5.78 16.27c-6.92 2.64-13.78 5.42-20.59 8.32l-5.78-16.27" class="cls-6"/><path d="M154.03 102.43c6.68-3.15 13.43-6.19 20.24-9.09l5.78 16.27c-6.81 2.9-13.56 5.94-20.24 9.09l-5.78-16.27" class="cls-3"/><path d="M134.2 112.25c6.53-3.39 13.15-6.67 19.83-9.82l5.78 16.27c-6.68 3.15-13.29 6.43-19.83 9.82l-5.78-16.27" class="cls-6"/><path d="M114.83 122.78c6.37-3.62 12.83-7.13 19.37-10.53l5.78 16.27c-6.54 3.39-13 6.9-19.37 10.53l-5.78-16.27" class="cls-3"/><path d="M95.99 133.97c6.19-3.84 12.47-7.57 18.84-11.19l5.78 16.27c-6.37 3.62-12.66 7.35-18.84 11.19l-5.78-16.27" class="cls-6"/><path d="M77.71 145.8c5.99-4.05 12.09-7.99 18.28-11.83l5.78 16.27c-6.19 3.84-12.29 7.79-18.28 11.83l-5.78-16.27" class="cls-3"/><path d="M60.07 158.24c5.77-4.24 11.65-8.39 17.64-12.44l5.78 16.27c-5.99 4.05-11.87 8.19-17.64 12.44l-5.78-16.27" class="cls-6"/><path d="M43.1 171.25c5.53-4.43 11.19-8.77 16.96-13.01l5.78 16.27c-5.77 4.24-11.43 8.58-16.96 13.01l-5.78-16.27" class="cls-3"/><path d="M26.88 184.81c5.28-4.6 10.69-9.12 16.22-13.55l5.78 16.27c-5.53 4.43-10.94 8.95-16.22 13.55l-5.78-16.27" class="cls-6"/><path d="M17.27 215.1c4.99-4.76 10.12-9.43 15.39-14.02l-5.78-16.27c-4.65 4.16-10.82 9.76-15.39 14.02l5.78 16.27" class="cls-3"/><path d="M271.67 78.18c.31.69.76 1.61 1.02 2.33l-5.78-16.27c-.3-.7-.67-1.65-1.02-2.33l5.78 16.27" class="cls-6"/><path d="M252.46 52.92c1.22.22 2.4.53 3.55.92 4.8 1.65 7.99 4.47 9.89 8.06l5.78 16.27c-1.9-3.59-5.08-6.41-9.89-8.06-1.14-.39-2.33-.7-3.55-.92l-5.78-16.27" class="cls-3"/><path d="M231.38 54.62c4.16-1.04 8.28-1.81 12.2-2.08 3.1-.22 6.08-.12 8.88.39l5.78 16.27c-2.8-.51-5.78-.61-8.88-.39-3.93.27-8.04 1.05-12.2 2.08l-5.78-16.27" class="cls-6"/><path d="M209.97 61.22c3.91-1.32 7.83-2.61 11.77-3.84 3.2-1.01 6.43-1.96 9.64-2.76l5.78 16.27c-3.2.8-6.43 1.75-9.64 2.76-3.93 1.24-7.86 2.52-11.77 3.84l-5.78-16.27" class="cls-3"/><path d="M189.08 68.75c6.92-2.64 13.89-5.16 20.89-7.53l5.78 16.27c-7.01 2.37-13.98 4.88-20.89 7.53l-5.78-16.27" class="cls-6"/><path d="M168.49 77.07c6.81-2.9 13.67-5.68 20.59-8.32l5.78 16.27c-6.92 2.64-13.78 5.42-20.59 8.32l-5.78-16.27" class="cls-3"/><path d="M148.25 86.16c6.68-3.15 13.43-6.19 20.24-9.09l5.78 16.27c-6.81 2.9-13.56 5.94-20.24 9.09l-5.78-16.27" class="cls-6"/><path d="M128.42 95.98c6.53-3.39 13.15-6.67 19.83-9.82l5.78 16.27c-6.68 3.15-13.29 6.43-19.83 9.82l-5.78-16.27" class="cls-3"/><path d="M109.05 106.51c6.37-3.62 12.83-7.13 19.37-10.53l5.78 16.27c-6.54 3.39-13 6.9-19.37 10.53l-5.78-16.27" class="cls-6"/><path d="M90.21 117.7c6.19-3.84 12.47-7.57 18.84-11.19l5.78 16.27c-6.37 3.62-12.66 7.35-18.84 11.19l-5.78-16.27" class="cls-3"/><path d="M71.93 129.54c5.99-4.05 12.09-7.99 18.28-11.83l5.78 16.27c-6.19 3.84-12.29 7.79-18.28 11.83l-5.78-16.27" class="cls-6"/><path d="M54.29 141.97c5.77-4.24 11.65-8.39 17.64-12.44l5.78 16.27c-5.99 4.05-11.87 8.19-17.64 12.44l-5.78-16.27" class="cls-3"/><path d="M37.32 154.99c5.53-4.43 11.19-8.77 16.96-13.01l5.78 16.27c-5.77 4.24-11.43 8.58-16.96 13.01l-5.78-16.27" class="cls-6"/><path d="M21.1 168.54c5.28-4.6 10.69-9.12 16.22-13.55l5.78 16.27c-5.53 4.43-10.94 8.95-16.22 13.55l-5.78-16.27" class="cls-3"/><path d="M11.49 198.83c4.58-4.25 10.72-9.88 15.39-14.02l-5.78-16.27c-4.65 4.16-10.82 9.76-15.39 14.02l5.78 16.27" class="cls-6"/><path d="M265.89 61.91c.31.69.76 1.61 1.02 2.33l-5.72-16.1c-.29-.81-.62-1.58-1.02-2.33l5.72 16.1" class="cls-3"/><path d="M252.46 52.92c1.22.22 2.4.53 3.55.92 4.8 1.65 7.99 4.47 9.89 8.06l-5.72-16.1c-1.9-3.59-5.08-6.41-9.89-8.06-1.14-.39-2.33-.7-3.55-.92l5.72 16.09" class="cls-6"/><path d="M231.38 54.62c4.16-1.04 8.28-1.81 12.2-2.08 3.1-.22 6.08-.12 8.88.39l-5.72-16.09c-2.8-.51-5.78-.61-8.88-.39-3.93.27-8.04 1.05-12.2 2.08l5.72 16.1" class="cls-3"/><path d="M209.97 61.22c3.91-1.32 7.83-2.61 11.77-3.84 3.2-1.01 6.43-1.96 9.64-2.76l-5.72-16.1c-3.2.8-6.43 1.75-9.64 2.76-3.93 1.24-7.86 2.52-11.77 3.84l5.72 16.09" class="cls-6"/><path d="M189.08 68.75c6.92-2.64 13.89-5.16 20.89-7.53l-5.72-16.09c-7.01 2.37-13.98 4.88-20.89 7.53l5.72 16.1" class="cls-3"/><path d="M168.49 77.07c6.81-2.9 13.67-5.68 20.59-8.32l-5.72-16.1c-6.92 2.64-13.78 5.42-20.59 8.32l5.72 16.1" class="cls-6"/><path d="M148.25 86.16c6.68-3.15 13.43-6.19 20.24-9.09l-5.72-16.1c-6.81 2.9-13.56 5.94-20.24 9.09l5.72 16.1" class="cls-3"/><path d="M128.42 95.98c6.53-3.39 13.15-6.67 19.83-9.82l-5.72-16.1c-6.68 3.15-13.29 6.43-19.83 9.82l5.72 16.1" class="cls-6"/><path d="M109.05 106.51c6.37-3.62 12.83-7.13 19.37-10.53l-5.72-16.1c-6.54 3.39-13 6.9-19.37 10.53l5.72 16.1" class="cls-3"/><path d="M90.21 117.7c6.19-3.84 12.47-7.57 18.84-11.19l-5.72-16.1c-6.37 3.62-12.66 7.35-18.84 11.19l5.72 16.1" class="cls-6"/><path d="M71.93 129.54c5.99-4.05 12.09-7.99 18.28-11.83l-5.72-16.1c-6.19 3.84-12.29 7.79-18.28 11.83l5.72 16.09" class="cls-3"/><path d="M54.29 141.97c5.77-4.24 11.65-8.39 17.64-12.44l-5.72-16.09c-5.99 4.05-11.87 8.19-17.64 12.44l5.72 16.1" class="cls-6"/><path d="M37.32 154.99c5.53-4.43 11.19-8.77 16.96-13.01l-5.72-16.1c-5.77 4.24-11.43 8.58-16.96 13.01l5.72 16.1" class="cls-3"/><path d="M21.1 168.54c5.28-4.6 10.69-9.12 16.22-13.55l-5.72-16.1c-5.53 4.43-10.94 8.95-16.22 13.55l5.72 16.1" class="cls-6"/><path d="M5.72 182.56c4.58-4.25 10.72-9.88 15.39-14.02l-5.72-16.1c-5.26 4.59-10.4 9.27-15.39 14.02l5.72 16.1" class="cls-3"/></g></g></g></g></svg>
