<svg xmlns="http://www.w3.org/2000/svg" fill="none" viewBox="0 0 304 304"><path fill="#0043EF" d="M0 0h304v304H0z"/><path fill="#fff" d="M219.776 132.997c1.65-1.619 2.476-3.863 2.476-6.733 0-2.961-.814-5.228-2.441-6.802-1.629-1.573-3.722-2.36-6.28-2.36-2.558 0-4.639.786-6.244 2.36-1.605 1.573-2.407 3.84-2.407 6.802 0 2.87.814 5.114 2.442 6.733 1.627 1.621 3.697 2.43 6.209 2.43 2.512 0 4.593-.81 6.245-2.43zm-16.57 10.863c-3.117-1.782-5.714-4.342-7.535-7.427-1.827-3.1-2.791-6.628-2.791-10.221s.964-7.122 2.791-10.221c1.845-3.076 4.461-5.622 7.591-7.39 3.131-1.769 6.669-2.698 10.269-2.698 3.6 0 7.139.929 10.269 2.698 3.131 1.768 5.747 4.314 7.592 7.39 1.827 3.099 2.791 6.628 2.791 10.221s-.964 7.122-2.791 10.221c-1.821 3.085-4.418 5.644-7.535 7.427-3.142 1.797-6.702 2.742-10.326 2.742-3.623 0-7.183-.945-10.325-2.742M53.9592 168.616h12.3485l5.5816 21.518 5.5117-21.518h10.1859l5.5117 21.518 5.4414-21.518h12.419l-10.535 38.663H88.075l-5.5812-22.074-5.5816 22.074H64.5637l-10.6045-38.663zm83.1948 26.099c1.651-1.619 2.476-3.863 2.477-6.733 0-2.961-.814-5.229-2.442-6.802-1.629-1.573-3.722-2.36-6.279-2.361-2.559 0-4.64.787-6.244 2.361-1.605 1.573-2.407 3.841-2.407 6.802 0 2.87.814 5.114 2.442 6.733 1.627 1.621 3.697 2.43 6.209 2.43 2.512 0 4.593-.81 6.244-2.43zm-16.57 10.863c-3.117-1.782-5.714-4.342-7.534-7.427-1.828-3.099-2.791-6.628-2.791-10.221s.963-7.122 2.791-10.221c1.845-3.076 4.461-5.622 7.591-7.39 3.131-1.768 6.669-2.698 10.269-2.698 3.6 0 7.138.93 10.269 2.698 3.131 1.768 5.746 4.314 7.591 7.39 1.828 3.099 2.791 6.628 2.791 10.221s-.963 7.122-2.791 10.221c-1.821 3.084-4.418 5.644-7.535 7.427-3.141 1.797-6.701 2.742-10.325 2.742-3.624 0-7.184-.945-10.326-2.742zm34.671-36.962h23.372v11.106h-11.372v27.557h-12v-38.663zm38.926-10.898H182.32v49.561h11.861v-49.561zm30.725 36.962c1.561-1.688 2.341-3.921 2.34-6.698 0-2.777-.78-5.021-2.34-6.733-1.56-1.712-3.71-2.568-6.452-2.569-2.742 0-4.857.845-6.346 2.534-1.489 1.689-2.234 3.945-2.234 6.768 0 2.776.745 5.009 2.234 6.698 1.489 1.69 3.604 2.534 6.346 2.534 2.741 0 4.892-.845 6.452-2.534zm-18.705 10.933c-2.641-1.883-4.742-4.419-6.095-7.358-1.471-3.234-2.232-6.742-2.232-10.291 0-3.549.761-7.057 2.232-10.29 1.346-2.953 3.448-5.502 6.095-7.393 2.506-1.782 5.514-2.73 8.594-2.707 2.66-.035 5.281.636 7.594 1.944 2.094 1.165 3.787 2.93 4.857 5.067v-16.868l11.93.001v49.56h-11.93v-5.517c-1.598 2.407-3.003 4.072-5.156 5.067-2.293 1.023-4.783 1.532-7.295 1.492-3.08.023-6.088-.925-8.594-2.707m57.135-98.715V96h-9.14c-2.96 0-5.8 1.1701-7.893 3.253-2.093 2.083-3.269 4.908-3.269 7.853v6.664h-5.158v11.106h5.158v20.685h12v-20.685h8.302V113.77h-8.302v-6.872h8.302zm-222.336 0v38.663h12.0002v-27.557h11.3716v-11.106H41zm107.58 11.106h-5.16v-11.106h5.16V96h11.93v10.898h8.371v11.106h-8.371v15.41h8.371v12.147h-9.138c-2.961 0-5.8-1.17-7.894-3.253-2.093-2.083-3.269-4.908-3.269-7.853v-16.451zm-62.4271-3.024c4.4167 0 7.9971 3.187 7.9971 7.119H78.1556c0-3.932 3.5804-7.119 7.9974-7.119h-.0001zm7.0678 18.434c-1.3429 2.252-4.0032 3.788-7.0677 3.788-4.417 0-7.9974-3.187-7.9974-7.12H106.77c.09-1.018.135-2.036.135-3.054.041-3.724-.889-7.396-2.699-10.655-1.757-3.171-4.331-5.819-7.4579-7.671-3.1663-1.895-6.7988-2.88-10.4938-2.845-3.6626-.042-7.2711.88-10.4606 2.672-3.1143 1.753-5.7012 4.302-7.4929 7.383-1.7917 3.082-2.723 6.584-2.6977 10.144-.0319 3.628.9116 7.199 2.733 10.342 1.8042 3.133 4.4159 5.731 7.5656 7.524 3.1498 1.794 6.7236 2.719 10.3526 2.68 4.8589 0 9.088-1.319 12.6874-3.956 3.1843-2.298 5.5703-5.524 6.8273-9.232H93.2207zm39.8113-10.383c-1.863-.656-3.773-1.17-5.713-1.539-2.04-.405-3.529-.916-4.425-1.522-.361-.206-.661-.504-.868-.864-.207-.359-.315-.766-.312-1.181-.008-.401.076-.8.245-1.165.169-.365.419-.688.731-.944.705-.596 1.607-.91 2.532-.881 2.391 0 3.604.959 3.851 3.069h12.501c-.077-1.674-.521-3.311-1.302-4.796-.78-1.485-1.878-2.782-3.216-3.8-2.976-2.356-6.946-3.551-11.801-3.551-4.531 0-8.26 1.192-11.084 3.543-1.371 1.092-2.472 2.482-3.219 4.064-.746 1.582-1.118 3.313-1.087 5.06-.032 1.964.495 3.897 1.521 5.576 1.098 1.698 2.595 3.105 4.361 4.099 2.212 1.231 4.596 2.127 7.074 2.658 2.704.638 4.549 1.251 5.482 1.823.811.498 1.189 1.098 1.189 1.889.015.395-.06.789-.22 1.151s-.401.683-.704.939c-.639.551-1.654.83-3.015.83-1.507 0-2.749-.364-3.69-1.083-.821-.626-1.279-1.637-1.381-2.992h-11.728c.085 2.276.818 4.482 2.113 6.361 1.475 2.163 3.508 3.892 5.886 5.004 2.656 1.247 5.565 1.871 8.502 1.823 4.739 0 8.666-1.144 11.672-3.399 3.061-2.299 4.613-5.322 4.613-8.986 0-5.36-2.862-9.123-8.508-11.187"/></svg>
