<svg xmlns="http://www.w3.org/2000/svg" xmlns:xlink="http://www.w3.org/1999/xlink" viewBox="0 0 100 100">
  <defs>
    <path id="reuse-0" d="M20.50898 47.1245v-1.287c.125-.009.251-.016.38-.02 3.521-.111 5.831 3.025 5.831 3.025s-2.495 3.465-5.17 3.465a3.244 3.244 0 0 1-1.041-.167v-3.9c1.371.166 1.646.771 2.471 2.145l1.833-1.545a4.853 4.853 0 0 0-3.593-1.755 6.651 6.651 0 0 0-.71.042m0-4.253v1.923c.126-.01.253-.018.38-.023 4.9-.165 8.087 4.016 8.087 4.016s-3.664 4.456-7.482 4.456a5.634 5.634 0 0 1-.985-.087v1.189a6.474 6.474 0 0 0 .82.053c3.552 0 6.121-1.814 8.609-3.961.412.33 2.1 1.134 2.448 1.486-2.365 1.98-7.878 3.576-11 3.576-.3 0-.591-.018-.875-.045v1.671h13.497v-14.257h-13.5l.001.003zm0 9.27v1.011c-3.286-.586-4.2-4-4.2-4a7.1 7.1 0 0 1 4.2-2.031v1.114h-.005a3.153 3.153 0 0 0-2.449 1.119 4.376 4.376 0 0 0 2.454 2.785m-5.836-3.134a8.137 8.137 0 0 1 5.836-3.17v-1.042c-4.307.346-8.036 3.993-8.036 3.993s2.112 6.107 8.036 6.666v-1.11c-4.347-.547-5.836-5.338-5.836-5.338v.001z" data-name="Eye Mark"/>
  </defs>
  <path fill="#76b900" d="M0 0h100v100H0z"/>
  <g fill="#fff" data-name="Group 12024">
    <use xlink:href="#reuse-0" data-name="Eye Mark"/>
    <use xlink:href="#reuse-0" data-name="Eye Mark"/>
    <path d="M58.33202 45.56548v9.355h2.642v-9.355h-2.642zm-20.784-.013v9.368h2.666v-7.113h2.065a1.942 1.942 0 0 1 1.5.522 3.509 3.509 0 0 1 .589 2.477v4.113h2.582v-5.175c0-3.694-2.355-4.192-4.658-4.192h-4.744m25.038.013v9.355h4.285c2.283 0 3.028-.38 3.834-1.231a5.239 5.239 0 0 0 .938-3.344 5.551 5.551 0 0 0-.855-3.218c-.979-1.306-2.389-1.562-4.494-1.562h-3.708zm2.621 2.037h1.136c1.648 0 2.714.74 2.714 2.66s-1.066 2.661-2.714 2.661h-1.136v-5.321zm-10.685-2.037-2.2 7.414-2.113-7.414h-2.857l3.018 9.355h3.808l3.041-9.355h-2.697zm18.35 9.355h2.642v-9.355h-2.643l.001 9.355zm7.406-9.352-3.689 9.348h2.605l.584-1.652h4.366l.553 1.652h2.829l-3.718-9.349-3.53.001zm1.715 1.705 1.6 4.38h-3.251l1.651-4.38z"/>
  </g>
</svg>
