<svg xmlns="http://www.w3.org/2000/svg" baseProfile="tiny-ps" version="1.2" viewBox="0 0 1024.7 1024.8"><path fill="#fcd0b1" d="M0 0h1024.7v1024.8H0Z"/><path d="M115.1 280.8v20.8c45.3 0 61.5 2.3 61.5 39.2V687c0 36.9-16.1 39.2-61.5 39.2V747h219.3v-20.8c-62.4 0-71.6-7.6-71.6-41.5V519.4H319c60.8 0 63.9 9.2 68.5 56.9h17.7V437h-17.7c-4.6 47.7-7.7 57.7-68.5 57.7h-56.2V304h70.8c89.3 0 109.3 16.9 119.3 116.9h19.2V277c-12.3 2.3-26.2 3.8-65.4 3.8Zm755.2 0H589c-39.2 0-53.1-1.5-65.4-3.8v143.8h19.2c9.9-100 30-116.9 119.2-116.9h24.6v380.8c0 36.1-14.6 41.5-72.3 41.5V747h230v-20.8c-57.7 0-71.6-5.3-71.6-41.5V304h24.6c89.2 0 109.2 16.9 119.2 116.9h19.2V277c-12.3 2.3-26.2 3.8-65.4 3.8Z"/></svg>