<svg xmlns="http://www.w3.org/2000/svg" version="1.0" viewBox="0 0 700 700"><path stroke="null" stroke-width=".1" d="M377.262439 199.484363c-2.106728 2.045679-4.87557 10.408894-5.116339 15.342589-.120384 2.22618.120384 4.452359.722307 5.896368 1.685382 4.211691.421346 7.099708-8.125951 18.230606-8.306527 10.830063-26.123427 28.759834-42.97725 43.199918-6.861914 5.896368-12.640368 10.950397-12.820944 11.311399-.842691 1.263507-5.176532 3.549854-9.510372 4.993862-2.528074.782171-5.537685 2.166013-6.681337 3.068518-2.588266 1.985512-4.273648 1.624509-5.176532-1.143173-.722307-2.22618-3.129996-4.693027-7.403644-7.520877-4.273648-2.888017-7.223067-6.197203-12.279214-13.778247-2.467881-3.730355-5.597877-7.641211-6.861914-8.66405-1.324229-1.083006-3.370765-3.489687-4.514417-5.415032-2.648458-4.332025-6.019223-7.220042-11.376331-9.807224-7.343452-3.549854-12.70056-4.993862-17.816899-4.933695-4.032879.120334-5.116339.421169-9.630756 2.647349-6.019223 2.948184-10.232679 6.919207-10.292871 9.566556 0 2.166013 1.986343 6.618372 5.236724 11.672401 2.588266 4.03119 7.223067 9.025053 8.36672 9.025053 1.504806 0 2.287305-1.20334 2.347497-3.369353.120384-2.948184 1.324229-3.068518 2.768842-.240668 2.70865 5.174363 2.768842 5.535366 2.648458 12.875742-.120384 8.303048-1.986343 18.772109-6.801722 38.266223-3.190188 12.755408-4.514417 18.95261-5.116339 23.765972-.421346 3.249019-2.106728 11.191065-3.551341 16.425596-.54173 1.744843-1.08346 4.572693-1.264037 6.317537-.180577 1.744843-.481538 4.211691-.662114 5.535366-.120384 1.323674-.361153 11.070731-.481538 21.660126-.240769 21.419458.361153 27.075158 3.79211 35.49854.300961.661837 1.324229 3.369353 2.347497 6.016702 1.62519 4.03119 4.273648 9.446222 7.042491 14.079082 1.745575 2.888017 4.093071 5.595533 9.871525 11.431733 11.677292 11.612234 17.335361 16.245095 29.855345 24.427809 11.918061 7.761545 13.182098 8.603883 14.987865 10.168226 4.33384 3.790522 11.797677 7.039541 19.622666 8.543716.842691.180501 4.33384 1.083006 7.82499 2.045679 6.922106 1.925345 17.636323 4.753194 19.562474 5.114196.662114.120334 5.056147 1.022839 9.751141 2.045679 4.755186.962672 9.329795 1.925345 10.232679 2.105846.963076.180501 5.236724 1.143173 9.510372 2.105846 12.399599 2.888017 16.011132 3.128685 37.01822 2.286347 20.224588-.782171 37.379373-.421169 43.940326.902505 3.190188.661837 9.871525.782171 12.339407.240668.662114-.180501 3.069804-.722004 5.4173-1.263507 4.093071-.962672 10.052102-1.20334 14.145173-.60167 5.296916.842338 6.741529.722004 11.07537-.962672 4.33384-1.684676 4.454225-1.684676 19.080936-1.805011l14.686903-.060167 11.436523-2.888017c6.320184-1.564342 12.70056-3.42952 14.32575-4.151524 1.564998-.661837 3.009611-1.20334 3.190188-1.20334.54173.120334 19.141128-7.280209 25.521504-10.168226 1.805767-.782171 4.574609-1.925345 6.079415-2.527015 1.504806-.60167 5.296916-2.406681 8.426912-4.03119 3.129996-1.564342 6.982298-3.42952 8.607488-4.03119 6.259992-2.466848 23.414776-18.471274 27.808809-25.931984 5.718262-9.927558 7.343452-17.869604 4.755186-24.00664-.963076-2.166013-.240769-4.63286 2.106728-7.340376 1.384421-1.624509 1.564998-2.166013 1.264037-4.813361-.240769-1.624509-.180577-4.572693.060192-6.558205.240769-1.985512.421346-12.334238.421346-22.9838 0-17.689103-.120384-19.794949-1.264037-23.765972-1.444613-5.174363-1.444613-5.23453-1.986343-9.446222-.361153-2.647349-1.264037-4.452359-4.87557-9.867391-3.370765-4.933695-4.454225-7.099708-4.454225-8.603883 0-1.143173-.060192-2.166013-.120384-2.346514-.060192-.120334-.300961-1.865178-.54173-3.730355-.240769-1.925345-1.023268-6.498038-1.745575-10.108059-1.143652-6.016702-1.564998-9.145387-1.986343-16.245095-.120384-1.323674-.54173-3.068518-.963076-3.850689-.722307-1.323674-1.324229-5.054029-2.16692-13.898581-.180577-1.805011-.481538-3.730355-.601922-4.211691-.180577-.481336-.421346-1.985512-.601922-3.309186-.120384-1.323674-.601922-3.910856-.963076-5.715867-.361153-1.805011-.782499-4.151524-.902883-5.114196-.54173-3.188852-.722307-4.151524-1.745575-9.025053-.54173-2.647349-1.143652-4.993862-1.324229-5.294697-.120384-.240668-.240769-2.527015-.180577-5.114196.180577-9.325888-.060192-14.379917-.963076-18.772109-1.264037-5.956535-1.264037-5.836201-1.745575-9.626723-.240769-1.805011-.54173-3.730355-.601922-4.211691-.060192-.481336-.361153-2.82785-.601922-5.114196-.722307-7.400543-1.264037-10.950397-2.16692-14.018915-.54173-1.564342-.963076-1.925345-2.407689-1.925345-.963076 0-1.805767.361002-1.805767.722004-.060192.421169-.180577 13.357078-.240769 28.759834-.060192 15.402756-.240769 28.519166-.421346 29.181003-.180577.661837-.54173 3.068518-.722307 5.415032-.240769 2.286347-.54173 4.873528-.662114 5.715867-.180577.842338-.421346 3.369353-.601922 5.715867-.120384 2.286347-.421346 6.498038-.662114 9.325888-.662114 8.66405-.662114 15.643424-.060192 18.35094.481538 2.22618.361153 3.008351-.902883 5.776034-2.768842 5.956535-3.069804 7.520877-3.79211 21.900794-.180577 3.309186-.601922 7.520877-.902883 9.325888-.300961 1.805011-.722307 4.392192-.902883 5.715867-.240769 1.323674-.481538 2.82785-.601922 3.309186-.120384.481336-.421346 2.22618-.601922 3.910856-.421346 3.249019-.54173 3.910856-1.444613 8.423382-.300961 1.624509-.782499 4.63286-.963076 6.618372-.240769 1.985512-.54173 3.790522-.662114 3.971023-.120384.180501-.361153 2.22618-.54173 4.512526-.902883 11.612234-2.588266 19.734782-5.838646 28.759834-1.023268 2.647349-1.926151 5.956535-2.106728 7.280209-.180577 1.323674-.54173 2.647349-.842691 3.008351-.300961.300835-.54173.842338-.54173 1.263507 0 .361002-1.926151 4.693027-4.273648 9.566556-2.347497 4.933695-4.33384 9.205554-4.394033 9.566556-.300961 1.564342-2.70865 6.25737-4.093071 7.881879-.902883 1.022839-2.106728 1.865178-2.768842 1.925345-.722307.060167-3.069804 1.20334-5.357108 2.587182-2.227112 1.323674-5.176532 2.707516-6.500761 3.068518-9.149219 2.346514-21.007087 5.715867-26.003042 7.400543-6.139607 2.045679-11.978253 2.707516-15.529595 1.684676-1.444613-.421169-2.588266-.180501-5.4173 1.143173-4.093071 1.865178-7.102683 2.707516-11.436523 3.249019-1.62519.180501-3.79211.481336-4.815378.60167-.963076.120334-4.514417.421169-7.82499.60167-3.310572.180501-6.982298.421169-8.125951.60167-1.143652.120334-6.982298.361002-12.941329.541503-15.710171.541503-22.69247.902505-24.377852 1.323674-2.768842.722004-22.331316.300835-31.299958-.661837-1.143652-.120334-4.815378-.421169-8.125951-.661837-3.310572-.180501-6.500761-.481336-7.102683-.60167-.54173-.060167-3.25038-.361002-6.019223-.541503-2.70865-.180501-5.357108-.481336-5.838646-.60167-.481538-.120334-2.829035-.421169-5.116339-.60167-2.347497-.180501-4.815378-.421169-5.477493-.541503-.662114-.120334-2.829035-.421169-4.815378-.60167-1.926151-.240668-4.33384-.481336-5.357108-.661837-.963076-.180501-2.829035-.421169-4.032879-.60167-7.283259-.962672-9.931717-1.744843-15.830556-4.512526-1.986343-.902505-4.935763-1.865178-6.621145-2.045679-8.788065-1.143173-11.857869-2.406681-32.263034-13.537579-3.611534-1.925345-9.630756-6.798873-12.519983-10.047892-3.491149-3.971023-9.510372-12.935909-11.316139-16.846765-1.805767-3.971023-2.407689-9.68689-1.444613-13.838414.361153-1.624509.842691-4.332025 1.023268-5.956535.180577-1.684676.481538-3.549854.601922-4.211691.120384-.661837.421346-2.22618.54173-3.489687.481538-3.489687 2.588266-9.08522 4.815378-12.815575 2.70865-4.452359 4.87557-11.191065 6.019223-18.591608.54173-3.309186 1.08346-6.558205 1.203845-7.220042.481538-2.587182 3.25038-11.070731 4.454225-13.71808.722307-1.504175 1.264037-3.068518 1.264037-3.42952 0-.962672 3.190188-7.099708 5.658069-10.830063 1.203845-1.805011 2.16692-3.610021 2.16692-3.971023 0-1.022839 2.949419-6.377704 4.394033-7.942046 2.227112-2.406681 7.223067-1.684676 16.071325 2.406681 6.741529 3.068518 12.15883 3.610021 17.636323 1.744843 1.865959-.661837 6.079415-1.744843 9.269603-2.466848 7.403644-1.624509 9.871525-2.948184 11.496715-6.377704 1.62519-3.309186 3.491149-3.549854 6.560953-.782171 2.70865 2.346514 3.611534 2.166013 11.015178-2.707516 7.102683-4.63286 7.644413-4.873528 9.45018-3.610021 1.564998 1.022839 3.731918.782171 5.116339-.541503 1.384421-1.323674 7.403644-5.114196 12.038445-7.581044 7.223067-3.850689 28.6515-11.4919 32.202842-11.4919 1.143652 0 2.889227.541503 3.852303 1.263507 2.287305 1.624509 3.370765 1.263507 9.209411-3.249019 2.588266-1.985512 6.621145-4.63286 9.028834-5.836201 6.922106-3.670188 7.82499-4.271858 9.811333-6.85904 2.347497-3.068518 3.671726-8.242881 3.430957-13.657913l-.120384-3.910856-11.496715-11.552067c-6.320184-6.377704-11.496715-11.792735-11.496715-12.153737 0-.722004-3.671726-4.091357-8.125951-7.340376-13.543251-9.987725-21.60901-15.94426-24.979774-18.591608-5.778454-4.512526-9.389987-6.738706-14.446135-8.844551-6.621145-2.707516-7.644413-2.767683-9.630756-.782171zm2.046536 15.402756c-.240769.481336-.601922.722004-.902883.541503-.842691-.481336-.601922-1.444008.361153-1.444008.54173 0 .722307.361002.54173.902505z"/></svg>